<svg width="126" height="126" viewBox="0 0 126 126" fill="none" xmlns="http://www.w3.org/2000/svg">
<path d="M63.052 125.552C75.4133 125.552 87.4971 121.886 97.7751 115.019C108.053 108.151 116.064 98.3901 120.794 86.9697C125.525 75.5493 126.763 62.9827 124.351 50.8589C121.94 38.7351 115.987 27.5986 107.246 18.8578C98.5054 10.117 87.369 4.1645 75.2452 1.75292C63.1213 -0.658654 50.5547 0.579053 39.1343 5.30953C27.7139 10.04 17.9527 18.0508 11.0852 28.3289C4.21757 38.6069 0.552004 50.6907 0.552002 63.052C0.552002 81.552 29.552 81.552 29.5526 63.052C29.5526 56.4264 31.5173 49.9497 35.1983 44.4407C38.8792 38.9318 44.1111 34.6381 50.2323 32.1026C56.3536 29.5671 63.0892 28.9037 69.5874 30.1963C76.0857 31.4889 82.0547 34.6794 86.7397 39.3643C91.4246 44.0493 94.6151 50.0183 95.9077 56.5166C97.2003 63.0148 96.5369 69.7505 94.0014 75.8717C91.4659 81.9929 87.1722 87.2248 81.6633 90.9057C76.1543 94.5867 69.6776 96.5514 63.052 96.5514C43.552 96.552 43.552 125.552 63.052 125.552Z" fill="url(#paint0_linear_36_80)"/>
<defs>
<linearGradient id="paint0_linear_36_80" x1="0.552002" y1="0.552002" x2="125.552" y2="125.552" gradientUnits="userSpaceOnUse">
<stop stop-color="#22C7F5"/>
<stop offset="1" stop-color="#2EC291"/>
</linearGradient>
</defs>
</svg>
