<svg width="125" height="125" viewBox="0 0 125 125" fill="none" xmlns="http://www.w3.org/2000/svg">
<path d="M62.5 125C74.8613 125 86.9451 121.334 97.2231 114.467C107.501 107.599 115.512 97.8381 120.242 86.4177C124.973 74.9973 126.211 62.4307 123.799 50.3069C121.388 38.183 115.435 27.0466 106.694 18.3058C97.9534 9.56505 86.817 3.6125 74.6932 1.20092C62.5693 -1.21066 50.0027 0.027051 38.5823 4.75753C27.1619 9.488 17.4007 17.4988 10.5332 27.7769C3.66556 38.0549 1.86651e-06 50.1387 0 62.5C0 81 29 81 29.0006 62.5C29.0006 55.8744 30.9653 49.3977 34.6463 43.8887C38.3272 38.3798 43.5591 34.0861 49.6803 31.5506C55.8016 29.0151 62.5372 28.3517 69.0354 29.6443C75.5337 30.9369 81.5027 34.1274 86.1877 38.8123C90.8726 43.4973 94.0631 49.4663 95.3557 55.9646C96.6483 62.4628 95.9849 69.1985 93.4494 75.3197C90.9139 81.4409 86.6202 86.6728 81.1113 90.3537C75.6023 94.0347 69.1256 95.9994 62.5 95.9994C43 96 43 125 62.5 125Z" fill="url(#paint0_linear_36_81)"/>
<defs>
<linearGradient id="paint0_linear_36_81" x1="0" y1="0" x2="125" y2="125" gradientUnits="userSpaceOnUse">
<stop stop-color="#FFA748"/>
<stop offset="1" stop-color="#F54A79"/>
</linearGradient>
</defs>
</svg>
