<svg width="40" height="40" viewBox="0 0 40 40" fill="none" xmlns="http://www.w3.org/2000/svg">
<path d="M25.2434 39.92C33.7458 37.5802 40 29.6882 40 20.3126C40 11.1716 34.0549 3.44084 25.8775 0.891146C23.9934 0.317984 21.992 0.00823208 19.9176 0C10.0829 0.0402543 1.92283 7.28982 0.29518 16.815C0.105668 17.9744 0.00493227 19.1725 0 20.4021C0.0401528 29.8485 6.42913 37.7726 15.057 40.0002C15.1099 39.8615 15.1337 39.7142 15.1337 39.5746C15.1337 39.3912 15.1307 38.9163 15.1268 38.3009C15.1196 37.1683 15.1094 35.5597 15.1094 34.4167C15.1094 34.4167 9.43823 35.6768 8.24729 31.9133C8.24729 31.9133 7.3237 29.4688 5.99503 28.8387C5.99503 28.8387 4.13975 27.5199 6.12466 27.5451C6.12466 27.5451 8.14197 27.7131 9.25189 29.7124C11.0262 32.955 13.9995 32.0225 15.158 31.4681C15.3443 30.124 15.8709 29.1916 16.4543 28.6371C11.9254 28.1163 7.35611 27.4359 7.35611 19.3546C7.35611 17.0444 7.97183 15.8852 9.2681 14.4067C9.05746 13.8607 8.36882 11.6093 9.47874 8.70275C11.172 8.15672 15.0689 10.9709 15.0689 10.9709C16.6892 10.5005 18.4311 10.2568 20.1567 10.2568C21.8824 10.2568 23.6242 10.5005 25.2446 10.9709C25.2446 10.9709 29.1414 8.14832 30.8347 8.70275C31.9446 11.6177 31.256 13.8607 31.0453 14.4067C32.3416 15.8936 33.1356 17.0528 33.1356 19.3546C33.1356 27.4611 28.3637 28.1079 23.8349 28.6371C24.5802 29.3008 25.2121 30.5609 25.2121 32.535C25.2121 34.4308 25.2012 36.628 25.194 38.0796C25.1905 38.7956 25.1878 39.3302 25.1878 39.5578C25.1878 39.6763 25.2054 39.8004 25.2434 39.92Z" fill="white" fill-opacity="0.25"/>
<path d="M13.0192 33.0138C13.2541 33.0138 13.4404 32.8794 13.4404 32.7114C13.4404 32.5182 13.2298 32.3838 12.9868 32.409C12.7518 32.409 12.5655 32.5434 12.5655 32.7114C12.5655 32.9046 12.7518 33.039 13.0192 33.0138Z" fill="white" fill-opacity="0.25"/>
<path d="M11.2692 32.745C11.0262 32.6946 10.8641 32.5014 10.9208 32.3334C10.9775 32.1653 11.2125 32.0813 11.4231 32.1401C11.6662 32.2157 11.8201 32.409 11.7715 32.577C11.7229 32.745 11.4798 32.829 11.2692 32.745Z" fill="white" fill-opacity="0.25"/>
<path d="M14.1291 32.6022C14.1048 32.409 14.2668 32.2494 14.5018 32.1905C14.7367 32.1653 14.9555 32.2746 14.9798 32.4342C15.0041 32.6022 14.842 32.7618 14.6071 32.8206C14.364 32.8794 14.1534 32.7702 14.1291 32.6022Z" fill="white" fill-opacity="0.25"/>
<path d="M7.93133 29.41C7.7936 29.2504 7.76929 29.0572 7.87461 28.9732C7.97994 28.8639 8.16628 28.9228 8.2959 29.0572C8.43363 29.2168 8.45793 29.41 8.35261 29.494C8.24729 29.6032 8.06095 29.5444 7.93133 29.41Z" fill="white" fill-opacity="0.25"/>
<path d="M7.18597 28.6203C7.02394 28.5363 6.94292 28.4019 6.99964 28.2927C7.05635 28.2087 7.18597 28.1835 7.34801 28.2339C7.51004 28.3179 7.59106 28.4523 7.53435 28.5615C7.47763 28.6791 7.3156 28.7043 7.18597 28.6203Z" fill="white" fill-opacity="0.25"/>
<path d="M9.72989 31.8041C9.54355 31.6445 9.49495 31.3925 9.62457 31.2833C9.72989 31.1489 9.97294 31.1741 10.1512 31.3673C10.3132 31.5269 10.3618 31.7789 10.2565 31.8881C10.1512 32.0225 9.91623 31.9973 9.72989 31.8041Z" fill="white" fill-opacity="0.25"/>
<path d="M8.70098 30.5441C8.57136 30.3508 8.57136 30.1324 8.70098 30.0484C8.83061 29.9392 9.04125 30.0232 9.15468 30.2164C9.2843 30.4096 9.2843 30.6281 9.15468 30.7373C9.04935 30.8213 8.83061 30.7373 8.70098 30.5441Z" fill="white" fill-opacity="0.25"/>
</svg>
