<svg width="40" height="40" viewBox="0 0 40 40" fill="none" xmlns="http://www.w3.org/2000/svg">
<path fill-rule="evenodd" clip-rule="evenodd" d="M20 40C31.0457 40 40 31.0457 40 20C40 8.9543 31.0457 0 20 0C8.9543 0 0 8.9543 0 20C0 31.0457 8.9543 40 20 40ZM9.95679 29.6H14.435V15.1788H9.95679V29.6ZM9.6 10.5935C9.6 12.0255 10.7615 13.2116 12.1935 13.2116C13.625 13.2116 14.787 12.0255 14.787 10.5935C14.787 9.90566 14.5138 9.246 14.0274 8.75962C13.541 8.27324 12.8813 8 12.1935 8C11.5057 8 10.846 8.27324 10.3596 8.75962C9.87324 9.246 9.6 9.90566 9.6 10.5935ZM26.7271 29.6H31.2005V21.6782C31.2005 17.8017 30.3673 14.8172 25.8351 14.8172C23.6562 14.8172 22.1958 16.0129 21.5979 17.146H21.5352V15.1788H17.2402V29.6H21.7136V22.4593C21.7136 20.5789 22.0704 18.7612 24.3987 18.7612C26.6933 18.7612 26.7271 20.9068 26.7271 22.5798V29.6Z" fill="black" fill-opacity="0.25"/>
</svg>
