<svg width="44" height="44" viewBox="0 0 44 44" fill="none" xmlns="http://www.w3.org/2000/svg">
<g filter="url(#filter0_d_9_6)">
<path fill-rule="evenodd" clip-rule="evenodd" d="M22 38C31.9411 38 40 29.9411 40 20C40 10.0589 31.9411 2 22 2C12.0589 2 4 10.0589 4 20C4 29.9411 12.0589 38 22 38ZM13 20C13 14.4777 17.4643 10 22.9777 10V10.0045C23.2634 10.0045 23.5446 10.0179 23.8259 10.0402C24.1384 10.067 24.3973 10.2946 24.4643 10.5982C24.5312 10.9018 24.3929 11.2143 24.1205 11.3705C21.7411 12.7188 20.1339 15.2768 20.1339 18.2143C20.1339 22.5536 23.6429 26.0714 27.9688 26.0714C28.4286 26.0714 28.875 26.0312 29.3125 25.9554C29.6205 25.9018 29.9286 26.058 30.0714 26.3348C30.2143 26.6116 30.1562 26.9509 29.933 27.1696C28.1339 28.9196 25.683 30 22.9777 30C17.4643 30 13 25.5223 13 20Z" fill="url(#paint0_linear_9_6)"/>
</g>
<defs>
<filter id="filter0_d_9_6" x="0" y="0" width="44" height="44" filterUnits="userSpaceOnUse" color-interpolation-filters="sRGB">
<feFlood flood-opacity="0" result="BackgroundImageFix"/>
<feColorMatrix in="SourceAlpha" type="matrix" values="0 0 0 0 0 0 0 0 0 0 0 0 0 0 0 0 0 0 127 0" result="hardAlpha"/>
<feOffset dy="2"/>
<feGaussianBlur stdDeviation="2"/>
<feComposite in2="hardAlpha" operator="out"/>
<feColorMatrix type="matrix" values="0 0 0 0 0 0 0 0 0 0 0 0 0 0 0 0 0 0 0.25 0"/>
<feBlend mode="normal" in2="BackgroundImageFix" result="effect1_dropShadow_9_6"/>
<feBlend mode="normal" in="SourceGraphic" in2="effect1_dropShadow_9_6" result="shape"/>
</filter>
<linearGradient id="paint0_linear_9_6" x1="4" y1="2" x2="40" y2="38" gradientUnits="userSpaceOnUse">
<stop stop-color="#FFA748"/>
<stop offset="1" stop-color="#F54A79"/>
</linearGradient>
</defs>
</svg>
