<svg width="306" height="300" viewBox="0 0 306 300" fill="none" xmlns="http://www.w3.org/2000/svg">
<path d="M258.203 242.414C258.587 250.698 261.017 258.531 265.074 264.439C269.507 270.896 275.52 274.523 281.79 274.523C288.06 274.523 294.072 270.896 298.506 264.439C302.939 257.982 305.43 249.225 305.43 240.094C305.43 233.209 301.175 233.209 301.174 240.094C301.174 247.582 299.132 254.762 295.496 260.056C291.861 265.35 286.931 268.325 281.79 268.325C276.649 268.325 271.718 265.35 268.083 260.056C264.448 254.762 262.406 247.582 262.406 240.094C262.406 239.724 262.39 239.375 262.362 239.048C262.014 230.676 259.577 222.748 255.481 216.783C251.048 210.326 245.035 206.699 238.765 206.699C232.495 206.699 226.482 210.326 222.049 216.783C217.992 222.69 215.562 230.524 215.178 238.808C215.143 239.206 215.124 239.635 215.124 240.094C215.124 247.582 213.082 254.762 209.446 260.056C205.811 265.35 200.881 268.325 195.74 268.325C190.599 268.325 185.668 265.35 182.033 260.056C178.398 254.762 176.356 247.582 176.356 240.094C176.356 239.724 176.341 239.375 176.312 239.048C175.964 230.676 173.527 222.748 169.431 216.783C164.998 210.326 158.985 206.699 152.715 206.699C146.445 206.699 140.432 210.326 135.999 216.783C131.942 222.69 129.512 230.524 129.128 238.808C129.093 239.206 129.074 239.635 129.074 240.094C129.074 247.582 127.032 254.762 123.397 260.056C119.761 265.35 114.831 268.325 109.69 268.325C104.549 268.325 99.6186 265.35 95.9834 260.056C92.3482 254.762 90.3059 247.582 90.3059 240.094C90.3059 239.724 90.2907 239.375 90.262 239.048C89.9145 230.676 87.4768 222.748 83.3811 216.783C78.9477 210.326 72.9348 206.699 66.665 206.699C60.3953 206.699 54.3824 210.326 49.949 216.783C45.8925 222.69 43.4624 230.524 43.0786 238.808C43.0432 239.206 43.0242 239.635 43.0241 240.094C43.0241 247.582 40.9819 254.762 37.3466 260.056C33.7114 265.35 28.781 268.325 23.6401 268.325C18.4991 268.325 13.5687 265.35 9.93347 260.056C6.29826 254.762 4.25601 247.582 4.25601 240.094C4.25601 233.897 0 233.897 0 240.094C0 249.225 2.49064 257.982 6.92401 264.439C11.3574 270.896 17.3703 274.523 23.6401 274.523C29.9098 274.523 35.9228 270.896 40.3561 264.439C44.4519 258.474 46.8895 250.546 47.2371 242.173C47.2657 241.847 47.281 241.498 47.281 241.127C47.281 233.64 49.3232 226.46 52.9584 221.166C56.5936 215.871 61.5241 212.897 66.665 212.897C71.806 212.897 76.7364 215.871 80.3716 221.166C84.0069 226.46 86.0491 233.64 86.0491 241.127C86.0491 241.587 86.0681 242.016 86.1035 242.414C86.4874 250.698 88.9174 258.531 92.9739 264.439C97.4073 270.896 103.42 274.523 109.69 274.523C115.96 274.523 121.973 270.896 126.406 264.439C130.502 258.474 132.939 250.546 133.287 242.173C133.316 241.847 133.331 241.498 133.331 241.127C133.331 233.64 135.373 226.46 139.008 221.166C142.644 215.871 147.574 212.897 152.715 212.897C157.856 212.897 162.786 215.871 166.422 221.166C170.057 226.46 172.099 233.64 172.099 241.127C172.099 241.587 172.118 242.016 172.153 242.414C172.537 250.698 174.967 258.531 179.024 264.439C183.457 270.896 189.47 274.523 195.74 274.523C202.01 274.523 208.023 270.896 212.456 264.439C216.552 258.474 218.989 250.546 219.337 242.173C219.366 241.847 219.381 241.498 219.381 241.127C219.381 233.64 221.423 226.46 225.058 221.166C228.693 215.871 233.624 212.897 238.765 212.897C243.906 212.897 248.836 215.871 252.471 221.166C256.107 226.46 258.149 233.64 258.149 241.127C258.149 241.587 258.168 242.016 258.203 242.414Z" fill="url(#paint0_linear_36_83)"/>
<path d="M215.125 235.619C215.125 226.488 217.615 217.731 222.049 211.274C226.482 204.818 232.495 201.19 238.765 201.19C245.035 201.19 251.048 204.818 255.481 211.274C259.914 217.731 262.405 226.488 262.405 235.619C262.405 242.504 258.15 242.504 258.149 235.619C258.149 228.132 256.107 220.951 252.471 215.657C248.836 210.363 243.906 207.389 238.765 207.389C233.624 207.389 228.693 210.363 225.058 215.657C221.423 220.951 219.381 228.132 219.381 235.619C219.381 241.816 215.125 241.816 215.125 235.619Z" fill="url(#paint1_linear_36_83)"/>
<path d="M215.125 232.176C215.125 223.045 217.615 214.288 222.049 207.831C226.482 201.375 232.495 197.747 238.765 197.747C245.035 197.747 251.048 201.375 255.481 207.831C259.914 214.288 262.405 223.045 262.405 232.176C262.405 239.062 258.15 239.062 258.149 232.176C258.149 224.689 256.107 217.508 252.471 212.214C248.836 206.92 243.906 203.946 238.765 203.946C233.624 203.946 228.693 206.92 225.058 212.214C221.423 217.508 219.381 224.689 219.381 232.176C219.381 238.373 215.125 238.373 215.125 232.176Z" fill="url(#paint2_linear_36_83)"/>
<path d="M215.125 227.356C215.125 218.225 217.615 209.468 222.049 203.011C226.482 196.555 232.495 192.927 238.765 192.927C245.035 192.927 251.048 196.555 255.481 203.011C259.914 209.468 262.405 218.225 262.405 227.356C262.405 234.242 258.15 234.242 258.149 227.356C258.149 219.869 256.107 212.688 252.471 207.394C248.836 202.1 243.906 199.126 238.765 199.126C233.624 199.126 228.693 202.1 225.058 207.394C221.423 212.688 219.381 219.869 219.381 227.356C219.381 233.553 215.125 233.553 215.125 227.356Z" fill="url(#paint3_linear_36_83)"/>
<path d="M215.125 221.847C215.125 212.716 217.615 203.959 222.049 197.503C226.482 191.046 232.495 187.419 238.765 187.419C245.035 187.419 251.048 191.046 255.481 197.503C259.914 203.959 262.405 212.716 262.405 221.847C262.405 228.733 258.15 228.733 258.149 221.847C258.149 214.36 256.107 207.18 252.471 201.886C248.836 196.591 243.906 193.617 238.765 193.617C233.624 193.617 228.693 196.591 225.058 201.886C221.423 207.18 219.381 214.36 219.381 221.847C219.381 228.044 215.125 228.044 215.125 221.847Z" fill="url(#paint4_linear_36_83)"/>
<path d="M215.125 215.65C215.125 206.519 217.615 197.762 222.049 191.306C226.482 184.849 232.495 181.222 238.765 181.222C245.035 181.222 251.048 184.849 255.481 191.306C259.914 197.762 262.405 206.519 262.405 215.65C262.405 222.536 258.15 222.536 258.149 215.65C258.149 208.163 256.107 200.983 252.471 195.688C248.836 190.394 243.906 187.42 238.765 187.42C233.624 187.42 228.693 190.394 225.058 195.688C221.423 200.983 219.381 208.163 219.381 215.65C219.381 221.847 215.125 221.847 215.125 215.65Z" fill="url(#paint5_linear_36_83)"/>
<path d="M43.025 235.619C43.025 226.488 45.5156 217.731 49.949 211.274C54.3823 204.818 60.3953 201.19 66.665 201.19C72.9348 201.19 78.9477 204.818 83.3811 211.274C87.8145 217.731 90.3051 226.488 90.3051 235.619C90.3051 242.504 86.0499 242.504 86.0491 235.619C86.0491 228.132 84.0068 220.951 80.3716 215.657C76.7364 210.363 71.806 207.389 66.665 207.389C61.5241 207.389 56.5936 210.363 52.9584 215.657C49.3232 220.951 47.281 228.132 47.281 235.619C47.281 241.816 43.025 241.816 43.025 235.619Z" fill="url(#paint6_linear_36_83)"/>
<path d="M43.025 232.176C43.025 223.045 45.5156 214.288 49.949 207.831C54.3823 201.375 60.3953 197.747 66.665 197.747C72.9348 197.747 78.9477 201.375 83.3811 207.831C87.8145 214.288 90.3051 223.045 90.3051 232.176C90.3051 239.062 86.0499 239.062 86.0491 232.176C86.0491 224.689 84.0068 217.508 80.3716 212.214C76.7364 206.92 71.806 203.946 66.665 203.946C61.5241 203.946 56.5936 206.92 52.9584 212.214C49.3232 217.508 47.281 224.689 47.281 232.176C47.281 238.373 43.025 238.373 43.025 232.176Z" fill="url(#paint7_linear_36_83)"/>
<path d="M43.025 227.356C43.025 218.225 45.5156 209.468 49.949 203.011C54.3823 196.555 60.3953 192.927 66.665 192.927C72.9348 192.927 78.9477 196.555 83.3811 203.011C87.8145 209.468 90.3051 218.225 90.3051 227.356C90.3051 234.242 86.0499 234.242 86.0491 227.356C86.0491 219.869 84.0068 212.688 80.3716 207.394C76.7364 202.1 71.806 199.126 66.665 199.126C61.5241 199.126 56.5936 202.1 52.9584 207.394C49.3232 212.688 47.281 219.869 47.281 227.356C47.281 233.553 43.025 233.553 43.025 227.356Z" fill="url(#paint8_linear_36_83)"/>
<path d="M43.025 221.847C43.025 212.716 45.5156 203.959 49.949 197.503C54.3823 191.046 60.3953 187.419 66.665 187.419C72.9348 187.419 78.9477 191.046 83.3811 197.503C87.8145 203.959 90.3051 212.716 90.3051 221.847C90.3051 228.733 86.0499 228.733 86.0491 221.847C86.0491 214.36 84.0068 207.18 80.3716 201.886C76.7364 196.591 71.806 193.617 66.665 193.617C61.5241 193.617 56.5936 196.591 52.9584 201.886C49.3232 207.18 47.281 214.36 47.281 221.847C47.281 228.044 43.025 228.044 43.025 221.847Z" fill="url(#paint9_linear_36_83)"/>
<path d="M43.025 215.65C43.025 206.519 45.5156 197.762 49.949 191.306C54.3823 184.849 60.3953 181.222 66.665 181.222C72.9348 181.222 78.9477 184.849 83.3811 191.306C87.8145 197.762 90.3051 206.519 90.3051 215.65C90.3051 222.536 86.0499 222.536 86.0491 215.65C86.0491 208.163 84.0068 200.983 80.3716 195.688C76.7364 190.394 71.806 187.42 66.665 187.42C61.5241 187.42 56.5936 190.394 52.9584 195.688C49.3232 200.983 47.281 208.163 47.281 215.65C47.281 221.847 43.025 221.847 43.025 215.65Z" fill="url(#paint10_linear_36_83)"/>
<path d="M0 245.603C-2.74059e-07 254.734 2.49064 263.491 6.92401 269.948C11.3574 276.404 17.3703 280.031 23.6401 280.031C29.9098 280.031 35.9228 276.404 40.3561 269.948C44.7895 263.491 47.2802 254.734 47.2802 245.603C47.2802 238.717 43.025 238.717 43.0241 245.603C43.0241 253.09 40.9819 260.271 37.3467 265.565C33.7115 270.859 28.781 273.833 23.6401 273.833C18.4991 273.833 13.5687 270.859 9.93347 265.565C6.29826 260.271 4.25601 253.09 4.25601 245.603C4.25601 239.406 0 239.406 0 245.603Z" fill="url(#paint11_linear_36_83)"/>
<path d="M0 249.046C-2.74059e-07 258.177 2.49064 266.934 6.92401 273.39C11.3574 279.847 17.3703 283.474 23.6401 283.474C29.9098 283.474 35.9228 279.847 40.3561 273.39C44.7895 266.934 47.2802 258.177 47.2802 249.046C47.2802 242.16 43.025 242.16 43.0241 249.046C43.0241 256.533 40.9819 263.713 37.3467 269.008C33.7115 274.302 28.781 277.276 23.6401 277.276C18.4991 277.276 13.5687 274.302 9.93347 269.008C6.29826 263.713 4.25601 256.533 4.25601 249.046C4.25601 242.849 0 242.849 0 249.046Z" fill="url(#paint12_linear_36_83)"/>
<path d="M0 253.866C-2.74059e-07 262.997 2.49064 271.754 6.92401 278.21C11.3574 284.667 17.3703 288.294 23.6401 288.294C29.9098 288.294 35.9228 284.667 40.3561 278.21C44.7895 271.754 47.2802 262.997 47.2802 253.866C47.2802 246.98 43.025 246.98 43.0241 253.866C43.0241 261.353 40.9819 268.533 37.3467 273.828C33.7115 279.122 28.781 282.096 23.6401 282.096C18.4991 282.096 13.5687 279.122 9.93347 273.828C6.29826 268.533 4.25601 261.353 4.25601 253.866C4.25601 247.669 0 247.669 0 253.866Z" fill="url(#paint13_linear_36_83)"/>
<path d="M0 259.374C-2.74059e-07 268.505 2.49064 277.262 6.92401 283.719C11.3574 290.176 17.3703 293.803 23.6401 293.803C29.9098 293.803 35.9228 290.176 40.3561 283.719C44.7895 277.262 47.2802 268.505 47.2802 259.374C47.2802 252.489 43.025 252.489 43.0241 259.374C43.0241 266.861 40.9819 274.042 37.3467 279.336C33.7115 284.63 28.781 287.605 23.6401 287.605C18.4991 287.605 13.5687 284.63 9.93347 279.336C6.29826 274.042 4.25601 266.861 4.25601 259.374C4.25601 253.177 0 253.177 0 259.374Z" fill="url(#paint14_linear_36_83)"/>
<path d="M0 265.571C-2.74059e-07 274.703 2.49064 283.46 6.92401 289.916C11.3574 296.373 17.3703 300 23.6401 300C29.9098 300 35.9228 296.373 40.3561 289.916C44.7895 283.46 47.2802 274.703 47.2802 265.572C47.2802 258.686 43.025 258.686 43.0241 265.572C43.0241 273.059 40.9819 280.239 37.3467 285.533C33.7115 290.827 28.781 293.802 23.6401 293.802C18.4991 293.802 13.5687 290.827 9.93347 285.533C6.29826 280.239 4.25601 273.059 4.25601 265.571C4.25601 259.374 0 259.374 0 265.571Z" fill="url(#paint15_linear_36_83)"/>
<path d="M86.0499 245.603C86.0499 254.734 88.5405 263.491 92.9739 269.948C97.4073 276.404 103.42 280.031 109.69 280.031C115.96 280.031 121.973 276.404 126.406 269.948C130.839 263.491 133.33 254.734 133.33 245.603C133.33 238.717 129.075 238.717 129.074 245.603C129.074 253.09 127.032 260.271 123.397 265.565C119.761 270.859 114.831 273.833 109.69 273.833C104.549 273.833 99.6186 270.859 95.9834 265.565C92.3482 260.271 90.3059 253.09 90.3059 245.603C90.3059 239.406 86.0499 239.406 86.0499 245.603Z" fill="url(#paint16_linear_36_83)"/>
<path d="M86.0499 249.046C86.0499 258.177 88.5405 266.934 92.9739 273.39C97.4073 279.847 103.42 283.474 109.69 283.474C115.96 283.474 121.973 279.847 126.406 273.39C130.839 266.934 133.33 258.177 133.33 249.046C133.33 242.16 129.075 242.16 129.074 249.046C129.074 256.533 127.032 263.713 123.397 269.008C119.761 274.302 114.831 277.276 109.69 277.276C104.549 277.276 99.6186 274.302 95.9834 269.008C92.3482 263.713 90.3059 256.533 90.3059 249.046C90.3059 242.849 86.0499 242.849 86.0499 249.046Z" fill="url(#paint17_linear_36_83)"/>
<path d="M86.0499 253.866C86.0499 262.997 88.5405 271.754 92.9739 278.21C97.4073 284.667 103.42 288.294 109.69 288.294C115.96 288.294 121.973 284.667 126.406 278.21C130.839 271.754 133.33 262.997 133.33 253.866C133.33 246.98 129.075 246.98 129.074 253.866C129.074 261.353 127.032 268.533 123.397 273.828C119.761 279.122 114.831 282.096 109.69 282.096C104.549 282.096 99.6186 279.122 95.9834 273.828C92.3482 268.533 90.3059 261.353 90.3059 253.866C90.3059 247.669 86.0499 247.669 86.0499 253.866Z" fill="url(#paint18_linear_36_83)"/>
<path d="M86.0499 259.374C86.0499 268.505 88.5405 277.262 92.9739 283.719C97.4073 290.176 103.42 293.803 109.69 293.803C115.96 293.803 121.973 290.176 126.406 283.719C130.839 277.262 133.33 268.505 133.33 259.374C133.33 252.489 129.075 252.489 129.074 259.374C129.074 266.861 127.032 274.042 123.397 279.336C119.761 284.63 114.831 287.605 109.69 287.605C104.549 287.605 99.6186 284.63 95.9834 279.336C92.3482 274.042 90.3059 266.861 90.3059 259.374C90.3059 253.177 86.0499 253.177 86.0499 259.374Z" fill="url(#paint19_linear_36_83)"/>
<path d="M86.0499 265.571C86.0499 274.703 88.5405 283.46 92.9739 289.916C97.4073 296.373 103.42 300 109.69 300C115.96 300 121.973 296.373 126.406 289.916C130.839 283.46 133.33 274.703 133.33 265.572C133.33 258.686 129.075 258.686 129.074 265.572C129.074 273.059 127.032 280.239 123.397 285.533C119.761 290.827 114.831 293.802 109.69 293.802C104.549 293.802 99.6186 290.827 95.9834 285.533C92.3482 280.239 90.3059 273.059 90.3059 265.571C90.3059 259.374 86.0499 259.374 86.0499 265.571Z" fill="url(#paint20_linear_36_83)"/>
<path d="M172.1 245.603C172.1 254.734 174.59 263.491 179.024 269.948C183.457 276.404 189.47 280.031 195.74 280.031C202.01 280.031 208.023 276.404 212.456 269.948C216.889 263.491 219.38 254.734 219.38 245.603C219.38 238.717 215.125 238.717 215.124 245.603C215.124 253.09 213.082 260.271 209.446 265.565C205.811 270.859 200.881 273.833 195.74 273.833C190.599 273.833 185.669 270.859 182.033 265.565C178.398 260.271 176.356 253.09 176.356 245.603C176.356 239.406 172.1 239.406 172.1 245.603Z" fill="url(#paint21_linear_36_83)"/>
<path d="M172.1 249.046C172.1 258.177 174.59 266.934 179.024 273.39C183.457 279.847 189.47 283.474 195.74 283.474C202.01 283.474 208.023 279.847 212.456 273.39C216.889 266.934 219.38 258.177 219.38 249.046C219.38 242.16 215.125 242.16 215.124 249.046C215.124 256.533 213.082 263.713 209.446 269.008C205.811 274.302 200.881 277.276 195.74 277.276C190.599 277.276 185.669 274.302 182.033 269.008C178.398 263.713 176.356 256.533 176.356 249.046C176.356 242.849 172.1 242.849 172.1 249.046Z" fill="url(#paint22_linear_36_83)"/>
<path d="M172.1 253.866C172.1 262.997 174.59 271.754 179.024 278.21C183.457 284.667 189.47 288.294 195.74 288.294C202.01 288.294 208.023 284.667 212.456 278.21C216.889 271.754 219.38 262.997 219.38 253.866C219.38 246.98 215.125 246.98 215.124 253.866C215.124 261.353 213.082 268.533 209.446 273.828C205.811 279.122 200.881 282.096 195.74 282.096C190.599 282.096 185.669 279.122 182.033 273.828C178.398 268.533 176.356 261.353 176.356 253.866C176.356 247.669 172.1 247.669 172.1 253.866Z" fill="url(#paint23_linear_36_83)"/>
<path d="M172.1 259.374C172.1 268.505 174.59 277.262 179.024 283.719C183.457 290.176 189.47 293.803 195.74 293.803C202.01 293.803 208.023 290.176 212.456 283.719C216.889 277.262 219.38 268.505 219.38 259.374C219.38 252.489 215.125 252.489 215.124 259.374C215.124 266.861 213.082 274.042 209.446 279.336C205.811 284.63 200.881 287.605 195.74 287.605C190.599 287.605 185.669 284.63 182.033 279.336C178.398 274.042 176.356 266.861 176.356 259.374C176.356 253.177 172.1 253.177 172.1 259.374Z" fill="url(#paint24_linear_36_83)"/>
<path d="M172.1 265.571C172.1 274.703 174.59 283.46 179.024 289.916C183.457 296.373 189.47 300 195.74 300C202.01 300 208.023 296.373 212.456 289.916C216.889 283.46 219.38 274.703 219.38 265.572C219.38 258.686 215.125 258.686 215.124 265.572C215.124 273.059 213.082 280.239 209.446 285.533C205.811 290.827 200.881 293.802 195.74 293.802C190.599 293.802 185.669 290.827 182.033 285.533C178.398 280.239 176.356 273.059 176.356 265.571C176.356 259.374 172.1 259.374 172.1 265.571Z" fill="url(#paint25_linear_36_83)"/>
<path d="M258.15 245.603C258.15 254.734 260.64 263.491 265.074 269.948C269.507 276.404 275.52 280.031 281.79 280.031C288.06 280.031 294.072 276.404 298.506 269.948C302.939 263.491 305.43 254.734 305.43 245.603C305.43 238.717 301.175 238.717 301.174 245.603C301.174 253.09 299.132 260.271 295.496 265.565C291.861 270.859 286.931 273.833 281.79 273.833C276.649 273.833 271.718 270.859 268.083 265.565C264.448 260.271 262.406 253.09 262.406 245.603C262.406 239.406 258.15 239.406 258.15 245.603Z" fill="url(#paint26_linear_36_83)"/>
<path d="M258.15 249.046C258.15 258.177 260.64 266.934 265.074 273.39C269.507 279.847 275.52 283.474 281.79 283.474C288.06 283.474 294.072 279.847 298.506 273.39C302.939 266.934 305.43 258.177 305.43 249.046C305.43 242.16 301.175 242.16 301.174 249.046C301.174 256.533 299.132 263.713 295.496 269.008C291.861 274.302 286.931 277.276 281.79 277.276C276.649 277.276 271.718 274.302 268.083 269.008C264.448 263.713 262.406 256.533 262.406 249.046C262.406 242.849 258.15 242.849 258.15 249.046Z" fill="url(#paint27_linear_36_83)"/>
<path d="M258.15 253.866C258.15 262.997 260.64 271.754 265.074 278.21C269.507 284.667 275.52 288.294 281.79 288.294C288.06 288.294 294.072 284.667 298.506 278.21C302.939 271.754 305.43 262.997 305.43 253.866C305.43 246.98 301.175 246.98 301.174 253.866C301.174 261.353 299.132 268.533 295.496 273.828C291.861 279.122 286.931 282.096 281.79 282.096C276.649 282.096 271.718 279.122 268.083 273.828C264.448 268.533 262.406 261.353 262.406 253.866C262.406 247.669 258.15 247.669 258.15 253.866Z" fill="url(#paint28_linear_36_83)"/>
<path d="M258.15 259.374C258.15 268.505 260.64 277.262 265.074 283.719C269.507 290.176 275.52 293.803 281.79 293.803C288.06 293.803 294.072 290.176 298.506 283.719C302.939 277.262 305.43 268.505 305.43 259.374C305.43 252.489 301.175 252.489 301.174 259.374C301.174 266.861 299.132 274.042 295.496 279.336C291.861 284.63 286.931 287.605 281.79 287.605C276.649 287.605 271.718 284.63 268.083 279.336C264.448 274.042 262.406 266.861 262.406 259.374C262.406 253.177 258.15 253.177 258.15 259.374Z" fill="url(#paint29_linear_36_83)"/>
<path d="M258.15 265.571C258.15 274.703 260.64 283.46 265.074 289.916C269.507 296.373 275.52 300 281.79 300C288.06 300 294.072 296.373 298.506 289.916C302.939 283.46 305.43 274.703 305.43 265.572C305.43 258.686 301.175 258.686 301.174 265.572C301.174 273.059 299.132 280.239 295.496 285.533C291.861 290.827 286.931 293.802 281.79 293.802C276.649 293.802 271.718 290.827 268.083 285.533C264.448 280.239 262.406 273.059 262.406 265.571C262.406 259.374 258.15 259.374 258.15 265.571Z" fill="url(#paint30_linear_36_83)"/>
<path d="M129.075 235.619C129.075 226.488 131.565 217.731 135.999 211.274C140.432 204.818 146.445 201.19 152.715 201.19C158.985 201.19 164.998 204.818 169.431 211.274C173.864 217.731 176.355 226.488 176.355 235.619C176.355 242.504 172.1 242.504 172.099 235.619C172.099 228.132 170.057 220.951 166.422 215.657C162.786 210.363 157.856 207.389 152.715 207.389C147.574 207.389 142.644 210.363 139.008 215.657C135.373 220.951 133.331 228.132 133.331 235.619C133.331 241.816 129.075 241.816 129.075 235.619Z" fill="url(#paint31_linear_36_83)"/>
<path d="M129.075 232.176C129.075 223.045 131.565 214.288 135.999 207.831C140.432 201.375 146.445 197.747 152.715 197.747C158.985 197.747 164.998 201.375 169.431 207.831C173.864 214.288 176.355 223.045 176.355 232.176C176.355 239.062 172.1 239.062 172.099 232.176C172.099 224.689 170.057 217.508 166.422 212.214C162.786 206.92 157.856 203.946 152.715 203.946C147.574 203.946 142.644 206.92 139.008 212.214C135.373 217.508 133.331 224.689 133.331 232.176C133.331 238.373 129.075 238.373 129.075 232.176Z" fill="url(#paint32_linear_36_83)"/>
<path d="M129.075 227.356C129.075 218.225 131.565 209.468 135.999 203.011C140.432 196.555 146.445 192.927 152.715 192.927C158.985 192.927 164.998 196.555 169.431 203.011C173.864 209.468 176.355 218.225 176.355 227.356C176.355 234.242 172.1 234.242 172.099 227.356C172.099 219.869 170.057 212.688 166.422 207.394C162.786 202.1 157.856 199.126 152.715 199.126C147.574 199.126 142.644 202.1 139.008 207.394C135.373 212.688 133.331 219.869 133.331 227.356C133.331 233.553 129.075 233.553 129.075 227.356Z" fill="url(#paint33_linear_36_83)"/>
<path d="M129.075 221.847C129.075 212.716 131.565 203.959 135.999 197.503C140.432 191.046 146.445 187.419 152.715 187.419C158.985 187.419 164.998 191.046 169.431 197.503C173.864 203.959 176.355 212.716 176.355 221.847C176.355 228.733 172.1 228.733 172.099 221.847C172.099 214.36 170.057 207.18 166.422 201.886C162.786 196.591 157.856 193.617 152.715 193.617C147.574 193.617 142.644 196.591 139.008 201.886C135.373 207.18 133.331 214.36 133.331 221.847C133.331 228.044 129.075 228.044 129.075 221.847Z" fill="url(#paint34_linear_36_83)"/>
<path d="M129.075 215.65C129.075 206.519 131.565 197.762 135.999 191.306C140.432 184.849 146.445 181.222 152.715 181.222C158.985 181.222 164.998 184.849 169.431 191.306C173.864 197.762 176.355 206.519 176.355 215.65C176.355 222.536 172.1 222.536 172.099 215.65C172.099 208.163 170.057 200.983 166.422 195.688C162.786 190.394 157.856 187.42 152.715 187.42C147.574 187.42 142.644 190.394 139.008 195.688C135.373 200.983 133.331 208.163 133.331 215.65C133.331 221.847 129.075 221.847 129.075 215.65Z" fill="url(#paint35_linear_36_83)"/>
<path d="M47.2802 214.962V266.604L43.025 266.604V214.962H47.2802Z" fill="url(#paint36_linear_36_83)"/>
<path d="M176.355 214.962V266.604H172.1V214.962H176.355Z" fill="url(#paint37_linear_36_83)"/>
<path d="M219.38 214.962V266.604H215.125V214.962H219.38Z" fill="url(#paint38_linear_36_83)"/>
<path d="M262.405 214.962V266.604H258.15V214.962H262.405Z" fill="url(#paint39_linear_36_83)"/>
<path d="M305.43 239.75L305.43 266.604H301.175V239.75H305.43Z" fill="url(#paint40_linear_36_83)"/>
<path d="M4.25522 240.439V266.604H0V240.439H4.25522Z" fill="url(#paint41_linear_36_83)"/>
<path d="M90.3051 214.962V266.604H86.0499V214.962H90.3051Z" fill="url(#paint42_linear_36_83)"/>
<path d="M133.33 214.962V266.604H129.075V214.962L133.33 214.962Z" fill="url(#paint43_linear_36_83)"/>
<path d="M258.203 150.785C258.587 159.069 261.017 166.902 265.074 172.81C269.507 179.267 275.52 182.894 281.79 182.894C288.06 182.894 294.072 179.267 298.506 172.81C302.939 166.354 305.43 157.597 305.43 148.466C305.43 141.58 301.175 141.58 301.174 148.466C301.174 155.953 299.132 163.133 295.496 168.427C291.861 173.721 286.931 176.696 281.79 176.696C276.649 176.696 271.718 173.721 268.083 168.427C264.448 163.133 262.406 155.953 262.406 148.465C262.406 148.095 262.39 147.746 262.362 147.419C262.014 139.047 259.577 131.119 255.481 125.154C251.048 118.697 245.035 115.07 238.765 115.07C232.495 115.07 226.482 118.697 222.049 125.154C217.992 131.062 215.562 138.895 215.178 147.179C215.143 147.577 215.124 148.006 215.124 148.466C215.124 155.953 213.082 163.133 209.446 168.427C205.811 173.721 200.881 176.696 195.74 176.696C190.599 176.696 185.668 173.721 182.033 168.427C178.398 163.133 176.356 155.953 176.356 148.465C176.356 148.095 176.341 147.746 176.312 147.419C175.964 139.047 173.527 131.119 169.431 125.154C164.998 118.697 158.985 115.07 152.715 115.07C146.445 115.07 140.432 118.697 135.999 125.154C131.942 131.062 129.512 138.895 129.128 147.179C129.093 147.577 129.074 148.006 129.074 148.466C129.074 155.953 127.032 163.133 123.397 168.427C119.761 173.721 114.831 176.696 109.69 176.696C104.549 176.696 99.6186 173.721 95.9834 168.427C92.3482 163.133 90.3059 155.953 90.3059 148.465C90.3059 148.095 90.2907 147.746 90.262 147.419C89.9145 139.047 87.4768 131.119 83.3811 125.154C78.9477 118.697 72.9348 115.07 66.665 115.07C60.3953 115.07 54.3824 118.697 49.949 125.154C45.8925 131.062 43.4624 138.895 43.0786 147.179C43.0432 147.577 43.0242 148.006 43.0241 148.466C43.0241 155.953 40.9819 163.133 37.3466 168.427C33.7114 173.721 28.781 176.696 23.6401 176.696C18.4991 176.696 13.5687 173.721 9.93347 168.427C6.29826 163.133 4.25601 155.953 4.25601 148.465C4.25601 142.268 0 142.268 0 148.465C0 157.597 2.49064 166.354 6.92401 172.81C11.3574 179.267 17.3703 182.894 23.6401 182.894C29.9098 182.894 35.9228 179.267 40.3561 172.81C44.4519 166.845 46.8895 158.917 47.2371 150.544C47.2657 150.218 47.281 149.869 47.281 149.498C47.281 142.011 49.3232 134.831 52.9584 129.537C56.5936 124.242 61.5241 121.268 66.665 121.268C71.806 121.268 76.7364 124.242 80.3716 129.537C84.0069 134.831 86.0491 142.011 86.0491 149.498C86.0491 149.958 86.0681 150.387 86.1035 150.785C86.4874 159.069 88.9174 166.902 92.9739 172.81C97.4073 179.267 103.42 182.894 109.69 182.894C115.96 182.894 121.973 179.267 126.406 172.81C130.502 166.845 132.939 158.917 133.287 150.544C133.316 150.218 133.331 149.869 133.331 149.498C133.331 142.011 135.373 134.831 139.008 129.537C142.644 124.242 147.574 121.268 152.715 121.268C157.856 121.268 162.786 124.242 166.422 129.537C170.057 134.831 172.099 142.011 172.099 149.498C172.099 149.958 172.118 150.387 172.153 150.785C172.537 159.069 174.967 166.902 179.024 172.81C183.457 179.267 189.47 182.894 195.74 182.894C202.01 182.894 208.023 179.267 212.456 172.81C216.552 166.845 218.989 158.917 219.337 150.544C219.366 150.218 219.381 149.869 219.381 149.498C219.381 142.011 221.423 134.831 225.058 129.537C228.693 124.242 233.624 121.268 238.765 121.268C243.906 121.268 248.836 124.242 252.471 129.537C256.107 134.831 258.149 142.011 258.149 149.498C258.149 149.958 258.168 150.387 258.203 150.785Z" fill="url(#paint44_linear_36_83)"/>
<path d="M215.125 143.99C215.125 134.859 217.615 126.102 222.049 119.645C226.482 113.189 232.495 109.561 238.765 109.561C245.035 109.561 251.048 113.189 255.481 119.645C259.914 126.102 262.405 134.859 262.405 143.99C262.405 150.876 258.15 150.876 258.149 143.99C258.149 136.503 256.107 129.322 252.471 124.028C248.836 118.734 243.906 115.76 238.765 115.76C233.624 115.76 228.693 118.734 225.058 124.028C221.423 129.322 219.381 136.503 219.381 143.99C219.381 150.187 215.125 150.187 215.125 143.99Z" fill="url(#paint45_linear_36_83)"/>
<path d="M215.125 140.547C215.125 131.416 217.615 122.659 222.049 116.202C226.482 109.746 232.495 106.118 238.765 106.118C245.035 106.118 251.048 109.746 255.481 116.202C259.914 122.659 262.405 131.416 262.405 140.547C262.405 147.433 258.15 147.433 258.149 140.547C258.149 133.06 256.107 125.879 252.471 120.585C248.836 115.291 243.906 112.317 238.765 112.317C233.624 112.317 228.693 115.291 225.058 120.585C221.423 125.879 219.381 133.06 219.381 140.547C219.381 146.744 215.125 146.744 215.125 140.547Z" fill="url(#paint46_linear_36_83)"/>
<path d="M215.125 135.727C215.125 126.596 217.615 117.839 222.049 111.382C226.482 104.926 232.495 101.298 238.765 101.298C245.035 101.298 251.048 104.926 255.481 111.382C259.914 117.839 262.405 126.596 262.405 135.727C262.405 142.613 258.15 142.613 258.149 135.727C258.149 128.24 256.107 121.059 252.471 115.765C248.836 110.471 243.906 107.497 238.765 107.497C233.624 107.497 228.693 110.471 225.058 115.765C221.423 121.059 219.381 128.24 219.381 135.727C219.381 141.924 215.125 141.924 215.125 135.727Z" fill="url(#paint47_linear_36_83)"/>
<path d="M215.125 130.218C215.125 121.087 217.615 112.33 222.049 105.874C226.482 99.4172 232.495 95.7899 238.765 95.7899C245.035 95.7899 251.048 99.4172 255.481 105.874C259.914 112.33 262.405 121.087 262.405 130.218C262.405 137.104 258.15 137.104 258.149 130.218C258.149 122.731 256.107 115.551 252.471 110.257C248.836 104.962 243.906 101.988 238.765 101.988C233.624 101.988 228.693 104.962 225.058 110.257C221.423 115.551 219.381 122.731 219.381 130.218C219.381 136.416 215.125 136.416 215.125 130.218Z" fill="url(#paint48_linear_36_83)"/>
<path d="M215.125 124.021C215.125 114.89 217.615 106.133 222.049 99.6767C226.482 93.2201 232.495 89.5928 238.765 89.5928C245.035 89.5928 251.048 93.2201 255.481 99.6767C259.914 106.133 262.405 114.89 262.405 124.021C262.405 130.907 258.15 130.907 258.149 124.021C258.149 116.534 256.107 109.354 252.471 104.06C248.836 98.7654 243.906 95.7911 238.765 95.7911C233.624 95.7911 228.693 98.7654 225.058 104.06C221.423 109.354 219.381 116.534 219.381 124.021C219.381 130.218 215.125 130.218 215.125 124.021Z" fill="url(#paint49_linear_36_83)"/>
<path d="M43.025 143.99C43.025 134.859 45.5156 126.102 49.949 119.645C54.3823 113.189 60.3953 109.561 66.665 109.561C72.9348 109.561 78.9477 113.189 83.3811 119.645C87.8145 126.102 90.3051 134.859 90.3051 143.99C90.3051 150.876 86.0499 150.876 86.0491 143.99C86.0491 136.503 84.0068 129.322 80.3716 124.028C76.7364 118.734 71.806 115.76 66.665 115.76C61.5241 115.76 56.5936 118.734 52.9584 124.028C49.3232 129.322 47.281 136.503 47.281 143.99C47.281 150.187 43.025 150.187 43.025 143.99Z" fill="url(#paint50_linear_36_83)"/>
<path d="M43.025 140.547C43.025 131.416 45.5156 122.659 49.949 116.202C54.3823 109.746 60.3953 106.118 66.665 106.118C72.9348 106.118 78.9477 109.746 83.3811 116.202C87.8145 122.659 90.3051 131.416 90.3051 140.547C90.3051 147.433 86.0499 147.433 86.0491 140.547C86.0491 133.06 84.0068 125.879 80.3716 120.585C76.7364 115.291 71.806 112.317 66.665 112.317C61.5241 112.317 56.5936 115.291 52.9584 120.585C49.3232 125.879 47.281 133.06 47.281 140.547C47.281 146.744 43.025 146.744 43.025 140.547Z" fill="url(#paint51_linear_36_83)"/>
<path d="M43.025 135.727C43.025 126.596 45.5156 117.839 49.949 111.382C54.3823 104.926 60.3953 101.298 66.665 101.298C72.9348 101.298 78.9477 104.926 83.3811 111.382C87.8145 117.839 90.3051 126.596 90.3051 135.727C90.3051 142.613 86.0499 142.613 86.0491 135.727C86.0491 128.24 84.0068 121.059 80.3716 115.765C76.7364 110.471 71.806 107.497 66.665 107.497C61.5241 107.497 56.5936 110.471 52.9584 115.765C49.3232 121.059 47.281 128.24 47.281 135.727C47.281 141.924 43.025 141.924 43.025 135.727Z" fill="url(#paint52_linear_36_83)"/>
<path d="M43.025 130.218C43.025 121.087 45.5156 112.33 49.949 105.874C54.3823 99.4172 60.3953 95.7899 66.665 95.7899C72.9348 95.7899 78.9477 99.4172 83.3811 105.874C87.8145 112.33 90.3051 121.087 90.3051 130.218C90.3051 137.104 86.0499 137.104 86.0491 130.218C86.0491 122.731 84.0068 115.551 80.3716 110.257C76.7364 104.962 71.806 101.988 66.665 101.988C61.5241 101.988 56.5936 104.962 52.9584 110.257C49.3232 115.551 47.281 122.731 47.281 130.218C47.281 136.416 43.025 136.416 43.025 130.218Z" fill="url(#paint53_linear_36_83)"/>
<path d="M43.025 124.021C43.025 114.89 45.5156 106.133 49.949 99.6767C54.3823 93.2201 60.3953 89.5928 66.665 89.5928C72.9348 89.5928 78.9477 93.2201 83.3811 99.6767C87.8145 106.133 90.3051 114.89 90.3051 124.021C90.3051 130.907 86.0499 130.907 86.0491 124.021C86.0491 116.534 84.0068 109.354 80.3716 104.06C76.7364 98.7654 71.806 95.7911 66.665 95.7911C61.5241 95.7911 56.5936 98.7654 52.9584 104.06C49.3232 109.354 47.281 116.534 47.281 124.021C47.281 130.218 43.025 130.218 43.025 124.021Z" fill="url(#paint54_linear_36_83)"/>
<path d="M0 153.974C-2.74059e-07 163.105 2.49064 171.862 6.92401 178.319C11.3574 184.775 17.3703 188.403 23.6401 188.403C29.9098 188.403 35.9228 184.775 40.3561 178.319C44.7895 171.862 47.2802 163.105 47.2802 153.974C47.2802 147.088 43.025 147.088 43.0241 153.974C43.0241 161.461 40.9819 168.642 37.3467 173.936C33.7115 179.23 28.781 182.204 23.6401 182.204C18.4991 182.204 13.5687 179.23 9.93347 173.936C6.29826 168.642 4.25601 161.461 4.25601 153.974C4.25601 147.777 0 147.777 0 153.974Z" fill="url(#paint55_linear_36_83)"/>
<path d="M0 157.417C-2.74059e-07 166.548 2.49064 175.305 6.92401 181.762C11.3574 188.218 17.3703 191.845 23.6401 191.845C29.9098 191.845 35.9228 188.218 40.3561 181.762C44.7895 175.305 47.2802 166.548 47.2802 157.417C47.2802 150.531 43.025 150.531 43.0241 157.417C43.0241 164.904 40.9819 172.084 37.3467 177.379C33.7115 182.673 28.781 185.647 23.6401 185.647C18.4991 185.647 13.5687 182.673 9.93347 177.379C6.29826 172.084 4.25601 164.904 4.25601 157.417C4.25601 151.22 0 151.22 0 157.417Z" fill="url(#paint56_linear_36_83)"/>
<path d="M0 162.237C-2.74059e-07 171.368 2.49064 180.125 6.92401 186.582C11.3574 193.038 17.3703 196.665 23.6401 196.665C29.9098 196.665 35.9228 193.038 40.3561 186.582C44.7895 180.125 47.2802 171.368 47.2802 162.237C47.2802 155.351 43.025 155.351 43.0241 162.237C43.0241 169.724 40.9819 176.904 37.3467 182.199C33.7115 187.493 28.781 190.467 23.6401 190.467C18.4991 190.467 13.5687 187.493 9.93347 182.199C6.29826 176.904 4.25601 169.724 4.25601 162.237C4.25601 156.04 0 156.04 0 162.237Z" fill="url(#paint57_linear_36_83)"/>
<path d="M0 167.745C-2.74059e-07 176.876 2.49064 185.633 6.92401 192.09C11.3574 198.547 17.3703 202.174 23.6401 202.174C29.9098 202.174 35.9228 198.547 40.3561 192.09C44.7895 185.634 47.2802 176.876 47.2802 167.745C47.2802 160.86 43.025 160.86 43.0241 167.745C43.0241 175.233 40.9819 182.413 37.3467 187.707C33.7115 193.001 28.781 195.976 23.6401 195.976C18.4991 195.976 13.5687 193.001 9.93347 187.707C6.29826 182.413 4.25601 175.233 4.25601 167.745C4.25601 161.548 0 161.548 0 167.745Z" fill="url(#paint58_linear_36_83)"/>
<path d="M0 173.943C-2.74059e-07 183.074 2.49064 191.831 6.92401 198.287C11.3574 204.744 17.3703 208.371 23.6401 208.371C29.9098 208.371 35.9228 204.744 40.3561 198.287C44.7895 191.831 47.2802 183.074 47.2802 173.943C47.2802 167.057 43.025 167.057 43.0241 173.943C43.0241 181.43 40.9819 188.61 37.3467 193.904C33.7115 199.199 28.781 202.173 23.6401 202.173C18.4991 202.173 13.5687 199.199 9.93347 193.904C6.29826 188.61 4.25601 181.43 4.25601 173.943C4.25601 167.746 0 167.746 0 173.943Z" fill="url(#paint59_linear_36_83)"/>
<path d="M86.0499 153.974C86.0499 163.105 88.5405 171.862 92.9739 178.319C97.4073 184.775 103.42 188.403 109.69 188.403C115.96 188.403 121.973 184.775 126.406 178.319C130.839 171.862 133.33 163.105 133.33 153.974C133.33 147.088 129.075 147.088 129.074 153.974C129.074 161.461 127.032 168.642 123.397 173.936C119.761 179.23 114.831 182.204 109.69 182.204C104.549 182.204 99.6186 179.23 95.9834 173.936C92.3482 168.642 90.3059 161.461 90.3059 153.974C90.3059 147.777 86.0499 147.777 86.0499 153.974Z" fill="url(#paint60_linear_36_83)"/>
<path d="M86.0499 157.417C86.0499 166.548 88.5405 175.305 92.9739 181.762C97.4073 188.218 103.42 191.845 109.69 191.845C115.96 191.845 121.973 188.218 126.406 181.762C130.839 175.305 133.33 166.548 133.33 157.417C133.33 150.531 129.075 150.531 129.074 157.417C129.074 164.904 127.032 172.084 123.397 177.379C119.761 182.673 114.831 185.647 109.69 185.647C104.549 185.647 99.6186 182.673 95.9834 177.379C92.3482 172.084 90.3059 164.904 90.3059 157.417C90.3059 151.22 86.0499 151.22 86.0499 157.417Z" fill="url(#paint61_linear_36_83)"/>
<path d="M86.0499 162.237C86.0499 171.368 88.5405 180.125 92.9739 186.582C97.4073 193.038 103.42 196.665 109.69 196.665C115.96 196.665 121.973 193.038 126.406 186.582C130.839 180.125 133.33 171.368 133.33 162.237C133.33 155.351 129.075 155.351 129.074 162.237C129.074 169.724 127.032 176.904 123.397 182.199C119.761 187.493 114.831 190.467 109.69 190.467C104.549 190.467 99.6186 187.493 95.9834 182.199C92.3482 176.904 90.3059 169.724 90.3059 162.237C90.3059 156.04 86.0499 156.04 86.0499 162.237Z" fill="url(#paint62_linear_36_83)"/>
<path d="M86.0499 167.745C86.0499 176.876 88.5405 185.633 92.9739 192.09C97.4073 198.547 103.42 202.174 109.69 202.174C115.96 202.174 121.973 198.547 126.406 192.09C130.839 185.634 133.33 176.876 133.33 167.745C133.33 160.86 129.075 160.86 129.074 167.745C129.074 175.233 127.032 182.413 123.397 187.707C119.761 193.001 114.831 195.976 109.69 195.976C104.549 195.976 99.6186 193.001 95.9834 187.707C92.3482 182.413 90.3059 175.233 90.3059 167.745C90.3059 161.548 86.0499 161.548 86.0499 167.745Z" fill="url(#paint63_linear_36_83)"/>
<path d="M86.0499 173.943C86.0499 183.074 88.5405 191.831 92.9739 198.287C97.4073 204.744 103.42 208.371 109.69 208.371C115.96 208.371 121.973 204.744 126.406 198.287C130.839 191.831 133.33 183.074 133.33 173.943C133.33 167.057 129.075 167.057 129.074 173.943C129.074 181.43 127.032 188.61 123.397 193.904C119.761 199.199 114.831 202.173 109.69 202.173C104.549 202.173 99.6186 199.199 95.9834 193.904C92.3482 188.61 90.3059 181.43 90.3059 173.943C90.3059 167.746 86.0499 167.746 86.0499 173.943Z" fill="url(#paint64_linear_36_83)"/>
<path d="M172.1 153.974C172.1 163.105 174.59 171.862 179.024 178.319C183.457 184.775 189.47 188.403 195.74 188.403C202.01 188.403 208.023 184.775 212.456 178.319C216.889 171.862 219.38 163.105 219.38 153.974C219.38 147.088 215.125 147.088 215.124 153.974C215.124 161.461 213.082 168.642 209.446 173.936C205.811 179.23 200.881 182.204 195.74 182.204C190.599 182.204 185.669 179.23 182.033 173.936C178.398 168.642 176.356 161.461 176.356 153.974C176.356 147.777 172.1 147.777 172.1 153.974Z" fill="url(#paint65_linear_36_83)"/>
<path d="M172.1 157.417C172.1 166.548 174.59 175.305 179.024 181.762C183.457 188.218 189.47 191.845 195.74 191.845C202.01 191.845 208.023 188.218 212.456 181.762C216.889 175.305 219.38 166.548 219.38 157.417C219.38 150.531 215.125 150.531 215.124 157.417C215.124 164.904 213.082 172.084 209.446 177.379C205.811 182.673 200.881 185.647 195.74 185.647C190.599 185.647 185.669 182.673 182.033 177.379C178.398 172.084 176.356 164.904 176.356 157.417C176.356 151.22 172.1 151.22 172.1 157.417Z" fill="url(#paint66_linear_36_83)"/>
<path d="M172.1 162.237C172.1 171.368 174.59 180.125 179.024 186.582C183.457 193.038 189.47 196.665 195.74 196.665C202.01 196.665 208.023 193.038 212.456 186.582C216.889 180.125 219.38 171.368 219.38 162.237C219.38 155.351 215.125 155.351 215.124 162.237C215.124 169.724 213.082 176.904 209.446 182.199C205.811 187.493 200.881 190.467 195.74 190.467C190.599 190.467 185.669 187.493 182.033 182.199C178.398 176.904 176.356 169.724 176.356 162.237C176.356 156.04 172.1 156.04 172.1 162.237Z" fill="url(#paint67_linear_36_83)"/>
<path d="M172.1 167.745C172.1 176.876 174.59 185.633 179.024 192.09C183.457 198.547 189.47 202.174 195.74 202.174C202.01 202.174 208.023 198.547 212.456 192.09C216.889 185.634 219.38 176.876 219.38 167.745C219.38 160.86 215.125 160.86 215.124 167.745C215.124 175.233 213.082 182.413 209.446 187.707C205.811 193.001 200.881 195.976 195.74 195.976C190.599 195.976 185.669 193.001 182.033 187.707C178.398 182.413 176.356 175.233 176.356 167.745C176.356 161.548 172.1 161.548 172.1 167.745Z" fill="url(#paint68_linear_36_83)"/>
<path d="M172.1 173.943C172.1 183.074 174.59 191.831 179.024 198.287C183.457 204.744 189.47 208.371 195.74 208.371C202.01 208.371 208.023 204.744 212.456 198.287C216.889 191.831 219.38 183.074 219.38 173.943C219.38 167.057 215.125 167.057 215.124 173.943C215.124 181.43 213.082 188.61 209.446 193.904C205.811 199.199 200.881 202.173 195.74 202.173C190.599 202.173 185.669 199.199 182.033 193.904C178.398 188.61 176.356 181.43 176.356 173.943C176.356 167.746 172.1 167.746 172.1 173.943Z" fill="url(#paint69_linear_36_83)"/>
<path d="M258.15 153.974C258.15 163.105 260.64 171.862 265.074 178.319C269.507 184.775 275.52 188.403 281.79 188.403C288.06 188.403 294.072 184.775 298.506 178.319C302.939 171.862 305.43 163.105 305.43 153.974C305.43 147.088 301.175 147.088 301.174 153.974C301.174 161.461 299.132 168.642 295.496 173.936C291.861 179.23 286.931 182.204 281.79 182.204C276.649 182.204 271.718 179.23 268.083 173.936C264.448 168.642 262.406 161.461 262.406 153.974C262.406 147.777 258.15 147.777 258.15 153.974Z" fill="url(#paint70_linear_36_83)"/>
<path d="M258.15 157.417C258.15 166.548 260.64 175.305 265.074 181.762C269.507 188.218 275.52 191.845 281.79 191.845C288.06 191.845 294.072 188.218 298.506 181.762C302.939 175.305 305.43 166.548 305.43 157.417C305.43 150.531 301.175 150.531 301.174 157.417C301.174 164.904 299.132 172.084 295.496 177.379C291.861 182.673 286.931 185.647 281.79 185.647C276.649 185.647 271.718 182.673 268.083 177.379C264.448 172.084 262.406 164.904 262.406 157.417C262.406 151.22 258.15 151.22 258.15 157.417Z" fill="url(#paint71_linear_36_83)"/>
<path d="M258.15 162.237C258.15 171.368 260.64 180.125 265.074 186.582C269.507 193.038 275.52 196.665 281.79 196.665C288.06 196.665 294.072 193.038 298.506 186.582C302.939 180.125 305.43 171.368 305.43 162.237C305.43 155.351 301.175 155.351 301.174 162.237C301.174 169.724 299.132 176.904 295.496 182.199C291.861 187.493 286.931 190.467 281.79 190.467C276.649 190.467 271.718 187.493 268.083 182.199C264.448 176.904 262.406 169.724 262.406 162.237C262.406 156.04 258.15 156.04 258.15 162.237Z" fill="url(#paint72_linear_36_83)"/>
<path d="M258.15 167.745C258.15 176.876 260.64 185.633 265.074 192.09C269.507 198.547 275.52 202.174 281.79 202.174C288.06 202.174 294.072 198.547 298.506 192.09C302.939 185.634 305.43 176.876 305.43 167.745C305.43 160.86 301.175 160.86 301.174 167.745C301.174 175.233 299.132 182.413 295.496 187.707C291.861 193.001 286.931 195.976 281.79 195.976C276.649 195.976 271.718 193.001 268.083 187.707C264.448 182.413 262.406 175.233 262.406 167.745C262.406 161.548 258.15 161.548 258.15 167.745Z" fill="url(#paint73_linear_36_83)"/>
<path d="M258.15 173.943C258.15 183.074 260.64 191.831 265.074 198.287C269.507 204.744 275.52 208.371 281.79 208.371C288.06 208.371 294.072 204.744 298.506 198.287C302.939 191.831 305.43 183.074 305.43 173.943C305.43 167.057 301.175 167.057 301.174 173.943C301.174 181.43 299.132 188.61 295.496 193.904C291.861 199.199 286.931 202.173 281.79 202.173C276.649 202.173 271.718 199.199 268.083 193.904C264.448 188.61 262.406 181.43 262.406 173.943C262.406 167.746 258.15 167.746 258.15 173.943Z" fill="url(#paint74_linear_36_83)"/>
<path d="M129.075 143.99C129.075 134.859 131.565 126.102 135.999 119.645C140.432 113.189 146.445 109.561 152.715 109.561C158.985 109.561 164.998 113.189 169.431 119.645C173.864 126.102 176.355 134.859 176.355 143.99C176.355 150.876 172.1 150.876 172.099 143.99C172.099 136.503 170.057 129.322 166.422 124.028C162.786 118.734 157.856 115.76 152.715 115.76C147.574 115.76 142.644 118.734 139.008 124.028C135.373 129.322 133.331 136.503 133.331 143.99C133.331 150.187 129.075 150.187 129.075 143.99Z" fill="url(#paint75_linear_36_83)"/>
<path d="M129.075 140.547C129.075 131.416 131.565 122.659 135.999 116.202C140.432 109.746 146.445 106.118 152.715 106.118C158.985 106.118 164.998 109.746 169.431 116.202C173.864 122.659 176.355 131.416 176.355 140.547C176.355 147.433 172.1 147.433 172.099 140.547C172.099 133.06 170.057 125.879 166.422 120.585C162.786 115.291 157.856 112.317 152.715 112.317C147.574 112.317 142.644 115.291 139.008 120.585C135.373 125.879 133.331 133.06 133.331 140.547C133.331 146.744 129.075 146.744 129.075 140.547Z" fill="url(#paint76_linear_36_83)"/>
<path d="M129.075 135.727C129.075 126.596 131.565 117.839 135.999 111.382C140.432 104.926 146.445 101.298 152.715 101.298C158.985 101.298 164.998 104.926 169.431 111.382C173.864 117.839 176.355 126.596 176.355 135.727C176.355 142.613 172.1 142.613 172.099 135.727C172.099 128.24 170.057 121.059 166.422 115.765C162.786 110.471 157.856 107.497 152.715 107.497C147.574 107.497 142.644 110.471 139.008 115.765C135.373 121.059 133.331 128.24 133.331 135.727C133.331 141.924 129.075 141.924 129.075 135.727Z" fill="url(#paint77_linear_36_83)"/>
<path d="M129.075 130.218C129.075 121.087 131.565 112.33 135.999 105.874C140.432 99.4172 146.445 95.7899 152.715 95.7899C158.985 95.7899 164.998 99.4172 169.431 105.874C173.864 112.33 176.355 121.087 176.355 130.218C176.355 137.104 172.1 137.104 172.099 130.218C172.099 122.731 170.057 115.551 166.422 110.257C162.786 104.962 157.856 101.988 152.715 101.988C147.574 101.988 142.644 104.962 139.008 110.257C135.373 115.551 133.331 122.731 133.331 130.218C133.331 136.416 129.075 136.416 129.075 130.218Z" fill="url(#paint78_linear_36_83)"/>
<path d="M129.075 124.021C129.075 114.89 131.565 106.133 135.999 99.6767C140.432 93.2201 146.445 89.5928 152.715 89.5928C158.985 89.5928 164.998 93.2201 169.431 99.6767C173.864 106.133 176.355 114.89 176.355 124.021C176.355 130.907 172.1 130.907 172.099 124.021C172.099 116.534 170.057 109.354 166.422 104.06C162.786 98.7654 157.856 95.7911 152.715 95.7911C147.574 95.7911 142.644 98.7654 139.008 104.06C135.373 109.354 133.331 116.534 133.331 124.021C133.331 130.218 129.075 130.218 129.075 124.021Z" fill="url(#paint79_linear_36_83)"/>
<path d="M47.2802 123.333V174.975H43.025V123.333H47.2802Z" fill="url(#paint80_linear_36_83)"/>
<path d="M176.355 123.333V174.975H172.1V123.333H176.355Z" fill="url(#paint81_linear_36_83)"/>
<path d="M219.38 123.333L219.38 174.975H215.125L215.125 123.333H219.38Z" fill="url(#paint82_linear_36_83)"/>
<path d="M262.405 123.333V174.975H258.15V123.333H262.405Z" fill="url(#paint83_linear_36_83)"/>
<path d="M305.43 148.121L305.43 174.975H301.175V148.121H305.43Z" fill="url(#paint84_linear_36_83)"/>
<path d="M4.25522 148.81V174.975H0V148.81H4.25522Z" fill="url(#paint85_linear_36_83)"/>
<path d="M90.3051 123.333V174.975H86.0499V123.333H90.3051Z" fill="url(#paint86_linear_36_83)"/>
<path d="M133.33 123.333V174.975L129.075 174.975V123.333H133.33Z" fill="url(#paint87_linear_36_83)"/>
<path d="M258.203 61.192C258.587 69.4759 261.017 77.3096 265.074 83.2174C269.507 89.674 275.52 93.3012 281.79 93.3012C288.06 93.3012 294.072 89.674 298.506 83.2174C302.939 76.7608 305.43 68.0037 305.43 58.8727C305.43 51.987 301.175 51.987 301.174 58.8727C301.174 66.3598 299.132 73.5403 295.496 78.8345C291.861 84.1287 286.931 87.1029 281.79 87.1029C276.649 87.1029 271.718 84.1287 268.083 78.8345C264.448 73.5403 262.406 66.3598 262.406 58.8727C262.406 58.5018 262.39 58.1532 262.362 57.8267C262.014 49.4541 259.577 41.5258 255.481 35.561C251.048 29.1044 245.035 25.4771 238.765 25.4771C232.495 25.4771 226.482 29.1044 222.049 35.561C217.992 41.4687 215.562 49.3024 215.178 57.5863C215.143 57.9845 215.124 58.4133 215.124 58.8727C215.124 66.3598 213.082 73.5403 209.446 78.8345C205.811 84.1287 200.881 87.1029 195.74 87.1029C190.599 87.1029 185.668 84.1287 182.033 78.8345C178.398 73.5403 176.356 66.3598 176.356 58.8727C176.356 58.5018 176.341 58.1532 176.312 57.8267C175.964 49.4541 173.527 41.5258 169.431 35.561C164.998 29.1044 158.985 25.4771 152.715 25.4771C146.445 25.4771 140.432 29.1044 135.999 35.561C131.942 41.4687 129.512 49.3024 129.128 57.5863C129.093 57.9845 129.074 58.4133 129.074 58.8727C129.074 66.3598 127.032 73.5403 123.397 78.8345C119.761 84.1287 114.831 87.1029 109.69 87.1029C104.549 87.1029 99.6186 84.1287 95.9834 78.8345C92.3482 73.5403 90.3059 66.3598 90.3059 58.8727C90.3059 58.5018 90.2907 58.1532 90.262 57.8267C89.9145 49.4541 87.4768 41.5258 83.3811 35.561C78.9477 29.1044 72.9348 25.4771 66.665 25.4771C60.3953 25.4771 54.3824 29.1044 49.949 35.561C45.8925 41.4687 43.4624 49.3024 43.0786 57.5863C43.0432 57.9845 43.0242 58.4133 43.0241 58.8727C43.0241 66.3598 40.9819 73.5403 37.3466 78.8345C33.7114 84.1287 28.781 87.1029 23.6401 87.1029C18.4991 87.1029 13.5687 84.1287 9.93347 78.8345C6.29826 73.5403 4.25601 66.3598 4.25601 58.8727C4.25601 52.6757 0 52.6757 0 58.8727C0 68.0037 2.49064 76.7608 6.92401 83.2174C11.3574 89.674 17.3703 93.3012 23.6401 93.3012C29.9098 93.3012 35.9228 89.674 40.3561 83.2174C44.4519 77.2525 46.8895 69.3243 47.2371 60.9517C47.2657 60.6252 47.281 60.2765 47.281 59.9056C47.281 52.4185 49.3232 45.2381 52.9584 39.9439C56.5936 34.6497 61.5241 31.6754 66.665 31.6754C71.806 31.6754 76.7364 34.6497 80.3716 39.9439C84.0069 45.2381 86.0491 52.4185 86.0491 59.9056C86.0491 60.3651 86.0681 60.7939 86.1035 61.1921C86.4874 69.476 88.9174 77.3096 92.9739 83.2174C97.4073 89.674 103.42 93.3012 109.69 93.3012C115.96 93.3012 121.973 89.674 126.406 83.2174C130.502 77.2525 132.939 69.3243 133.287 60.9517C133.316 60.6252 133.331 60.2765 133.331 59.9056C133.331 52.4185 135.373 45.2381 139.008 39.9439C142.644 34.6497 147.574 31.6754 152.715 31.6754C157.856 31.6754 162.786 34.6497 166.422 39.9439C170.057 45.2381 172.099 52.4185 172.099 59.9056C172.099 60.3651 172.118 60.7939 172.153 61.1921C172.537 69.476 174.967 77.3096 179.024 83.2174C183.457 89.674 189.47 93.3012 195.74 93.3012C202.01 93.3012 208.023 89.674 212.456 83.2174C216.552 77.2525 218.989 69.3243 219.337 60.9517C219.366 60.6252 219.381 60.2765 219.381 59.9056C219.381 52.4185 221.423 45.2381 225.058 39.9439C228.693 34.6497 233.624 31.6754 238.765 31.6754C243.906 31.6754 248.836 34.6497 252.471 39.9439C256.107 45.2381 258.149 52.4185 258.149 59.9056C258.149 60.3651 258.168 60.7939 258.203 61.192Z" fill="url(#paint88_linear_36_83)"/>
<path d="M215.125 54.3971C215.125 45.2661 217.615 36.509 222.049 30.0524C226.482 23.5958 232.495 19.9686 238.765 19.9686C245.035 19.9686 251.048 23.5958 255.481 30.0524C259.914 36.509 262.405 45.266 262.405 54.397C262.405 61.2827 258.15 61.2827 258.149 54.397C258.149 46.9099 256.107 39.7295 252.471 34.4353C248.836 29.1411 243.906 26.1669 238.765 26.1669C233.624 26.1669 228.693 29.1411 225.058 34.4353C221.423 39.7295 219.381 46.91 219.381 54.3971C219.381 60.5941 215.125 60.5941 215.125 54.3971Z" fill="url(#paint89_linear_36_83)"/>
<path d="M215.125 50.9542C215.125 41.8232 217.615 33.0662 222.049 26.6096C226.482 20.153 232.495 16.5257 238.765 16.5257C245.035 16.5257 251.048 20.153 255.481 26.6096C259.914 33.0662 262.405 41.8232 262.405 50.9542C262.405 57.8399 258.15 57.8399 258.149 50.9542C258.149 43.4671 256.107 36.2866 252.471 30.9925C248.836 25.6983 243.906 22.724 238.765 22.724C233.624 22.724 228.693 25.6983 225.058 30.9925C221.423 36.2866 219.381 43.4671 219.381 50.9542C219.381 57.1513 215.125 57.1513 215.125 50.9542Z" fill="url(#paint90_linear_36_83)"/>
<path d="M215.125 46.1342C215.125 37.0032 217.615 28.2462 222.049 21.7896C226.482 15.333 232.495 11.7057 238.765 11.7057C245.035 11.7057 251.048 15.333 255.481 21.7896C259.914 28.2462 262.405 37.0032 262.405 46.1342C262.405 53.0199 258.15 53.0199 258.149 46.1342C258.149 38.6471 256.107 31.4666 252.471 26.1725C248.836 20.8783 243.906 17.9041 238.765 17.9041C233.624 17.9041 228.693 20.8783 225.058 26.1725C221.423 31.4666 219.381 38.6471 219.381 46.1342C219.381 52.3313 215.125 52.3313 215.125 46.1342Z" fill="url(#paint91_linear_36_83)"/>
<path d="M215.125 40.6257C215.125 31.4947 217.615 22.7376 222.049 16.281C226.482 9.82444 232.495 6.19718 238.765 6.19717C245.035 6.19717 251.048 9.82444 255.481 16.281C259.914 22.7376 262.405 31.4946 262.405 40.6256C262.405 47.5113 258.15 47.5114 258.149 40.6257C258.149 33.1386 256.107 25.9581 252.471 20.6639C248.836 15.3697 243.906 12.3955 238.765 12.3955C233.624 12.3955 228.693 15.3697 225.058 20.6639C221.423 25.9581 219.381 33.1386 219.381 40.6257C219.381 46.8227 215.125 46.8227 215.125 40.6257Z" fill="url(#paint92_linear_36_83)"/>
<path d="M215.125 34.4285C215.125 25.2975 217.615 16.5405 222.049 10.0839C226.482 3.6273 232.495 3.16061e-05 238.765 3.05176e-05C245.035 2.94291e-05 251.048 3.6273 255.481 10.0839C259.914 16.5405 262.405 25.2975 262.405 34.4285C262.405 41.3142 258.15 41.3142 258.149 34.4285C258.149 26.9414 256.107 19.761 252.471 14.4668C248.836 9.17258 243.906 6.19836 238.765 6.19836C233.624 6.19837 228.693 9.17258 225.058 14.4668C221.423 19.761 219.381 26.9414 219.381 34.4285C219.381 40.6256 215.125 40.6256 215.125 34.4285Z" fill="url(#paint93_linear_36_83)"/>
<path d="M43.025 54.3971C43.025 45.2661 45.5156 36.509 49.949 30.0524C54.3823 23.5958 60.3953 19.9686 66.665 19.9686C72.9348 19.9686 78.9477 23.5958 83.3811 30.0524C87.8145 36.509 90.3051 45.266 90.3051 54.397C90.3051 61.2827 86.0499 61.2827 86.0491 54.397C86.0491 46.9099 84.0068 39.7295 80.3716 34.4353C76.7364 29.1411 71.806 26.1669 66.665 26.1669C61.5241 26.1669 56.5936 29.1411 52.9584 34.4353C49.3232 39.7295 47.281 46.91 47.281 54.3971C47.281 60.5941 43.025 60.5941 43.025 54.3971Z" fill="url(#paint94_linear_36_83)"/>
<path d="M43.025 50.9542C43.025 41.8232 45.5156 33.0662 49.949 26.6096C54.3823 20.153 60.3953 16.5257 66.665 16.5257C72.9348 16.5257 78.9477 20.153 83.3811 26.6096C87.8145 33.0662 90.3051 41.8232 90.3051 50.9542C90.3051 57.8399 86.0499 57.8399 86.0491 50.9542C86.0491 43.4671 84.0068 36.2866 80.3716 30.9925C76.7364 25.6983 71.806 22.724 66.665 22.724C61.5241 22.724 56.5936 25.6983 52.9584 30.9925C49.3232 36.2866 47.281 43.4671 47.281 50.9542C47.281 57.1513 43.025 57.1513 43.025 50.9542Z" fill="url(#paint95_linear_36_83)"/>
<path d="M43.025 46.1342C43.025 37.0032 45.5156 28.2462 49.949 21.7896C54.3823 15.333 60.3953 11.7057 66.665 11.7057C72.9348 11.7057 78.9477 15.333 83.3811 21.7896C87.8145 28.2462 90.3051 37.0032 90.3051 46.1342C90.3051 53.0199 86.0499 53.0199 86.0491 46.1342C86.0491 38.6471 84.0068 31.4666 80.3716 26.1725C76.7364 20.8783 71.806 17.9041 66.665 17.9041C61.5241 17.9041 56.5936 20.8783 52.9584 26.1725C49.3232 31.4666 47.281 38.6471 47.281 46.1342C47.281 52.3313 43.025 52.3313 43.025 46.1342Z" fill="url(#paint96_linear_36_83)"/>
<path d="M43.025 40.6257C43.025 31.4947 45.5156 22.7376 49.949 16.281C54.3823 9.82444 60.3953 6.19718 66.665 6.19717C72.9348 6.19717 78.9477 9.82444 83.3811 16.281C87.8145 22.7376 90.3051 31.4946 90.3051 40.6256C90.3051 47.5113 86.0499 47.5114 86.0491 40.6257C86.0491 33.1386 84.0068 25.9581 80.3716 20.6639C76.7364 15.3697 71.806 12.3955 66.665 12.3955C61.5241 12.3955 56.5936 15.3697 52.9584 20.6639C49.3232 25.9581 47.281 33.1386 47.281 40.6257C47.281 46.8227 43.025 46.8227 43.025 40.6257Z" fill="url(#paint97_linear_36_83)"/>
<path d="M43.025 34.4285C43.025 25.2975 45.5156 16.5405 49.949 10.0839C54.3823 3.6273 60.3953 3.16061e-05 66.665 3.05176e-05C72.9348 2.94291e-05 78.9477 3.6273 83.3811 10.0839C87.8145 16.5405 90.3051 25.2975 90.3051 34.4285C90.3051 41.3142 86.0499 41.3142 86.0491 34.4285C86.0491 26.9414 84.0068 19.761 80.3716 14.4668C76.7364 9.17258 71.806 6.19836 66.665 6.19836C61.5241 6.19837 56.5936 9.17258 52.9584 14.4668C49.3232 19.761 47.281 26.9414 47.281 34.4285C47.281 40.6256 43.025 40.6256 43.025 34.4285Z" fill="url(#paint98_linear_36_83)"/>
<path d="M0 64.3813C-2.74059e-07 73.5123 2.49064 82.2693 6.92401 88.7259C11.3574 95.1825 17.3703 98.8098 23.6401 98.8098C29.9098 98.8098 35.9228 95.1825 40.3561 88.7259C44.7895 82.2693 47.2802 73.5123 47.2802 64.3813C47.2802 57.4956 43.025 57.4956 43.0241 64.3813C43.0241 71.8684 40.9819 79.0489 37.3467 84.343C33.7115 89.6372 28.781 92.6115 23.6401 92.6115C18.4991 92.6115 13.5687 89.6372 9.93347 84.343C6.29826 79.0489 4.25601 71.8684 4.25601 64.3813C4.25601 58.1842 0 58.1842 0 64.3813Z" fill="url(#paint99_linear_36_83)"/>
<path d="M0 67.8241C-2.74059e-07 76.9551 2.49064 85.7122 6.92401 92.1688C11.3574 98.6254 17.3703 102.253 23.6401 102.253C29.9098 102.253 35.9228 98.6254 40.3561 92.1688C44.7895 85.7122 47.2802 76.9552 47.2802 67.8242C47.2802 60.9385 43.025 60.9385 43.0241 67.8241C43.0241 75.3113 40.9819 82.4917 37.3467 87.7859C33.7115 93.0801 28.781 96.0543 23.6401 96.0543C18.4991 96.0543 13.5687 93.0801 9.93347 87.7859C6.29826 82.4917 4.25601 75.3113 4.25601 67.8241C4.25601 61.6271 0 61.6271 0 67.8241Z" fill="url(#paint100_linear_36_83)"/>
<path d="M0 72.6441C-2.74059e-07 81.7751 2.49064 90.5322 6.92401 96.9888C11.3574 103.445 17.3703 107.073 23.6401 107.073C29.9098 107.073 35.9228 103.445 40.3561 96.9888C44.7895 90.5322 47.2802 81.7751 47.2802 72.6441C47.2802 65.7584 43.025 65.7584 43.0241 72.6441C43.0241 80.1312 40.9819 87.3117 37.3467 92.6059C33.7115 97.9001 28.781 100.874 23.6401 100.874C18.4991 100.874 13.5687 97.9001 9.93347 92.6059C6.29826 87.3117 4.25601 80.1312 4.25601 72.6441C4.25601 66.4471 0 66.4471 0 72.6441Z" fill="url(#paint101_linear_36_83)"/>
<path d="M0 78.1527C-2.74059e-07 87.2837 2.49064 96.0407 6.92401 102.497C11.3574 108.954 17.3703 112.581 23.6401 112.581C29.9098 112.581 35.9228 108.954 40.3561 102.497C44.7895 96.0407 47.2802 87.2837 47.2802 78.1527C47.2802 71.267 43.025 71.267 43.0241 78.1527C43.0241 85.6398 40.9819 92.8203 37.3467 98.1145C33.7115 103.409 28.781 106.383 23.6401 106.383C18.4991 106.383 13.5687 103.409 9.93347 98.1144C6.29826 92.8203 4.25601 85.6398 4.25601 78.1527C4.25601 71.9556 0 71.9556 0 78.1527Z" fill="url(#paint102_linear_36_83)"/>
<path d="M0 84.3498C-2.74059e-07 93.4808 2.49064 102.238 6.92401 108.694C11.3574 115.151 17.3703 118.778 23.6401 118.778C29.9098 118.778 35.9228 115.151 40.3561 108.694C44.7895 102.238 47.2802 93.4808 47.2802 84.3498C47.2802 77.4641 43.025 77.4641 43.0241 84.3498C43.0241 91.8369 40.9819 99.0174 37.3467 104.312C33.7115 109.606 28.781 112.58 23.6401 112.58C18.4991 112.58 13.5687 109.606 9.93347 104.312C6.29826 99.0174 4.25601 91.8369 4.25601 84.3498C4.25601 78.1528 0 78.1528 0 84.3498Z" fill="url(#paint103_linear_36_83)"/>
<path d="M86.0499 64.3813C86.0499 73.5123 88.5405 82.2693 92.9739 88.7259C97.4073 95.1825 103.42 98.8098 109.69 98.8098C115.96 98.8098 121.973 95.1825 126.406 88.7259C130.839 82.2693 133.33 73.5123 133.33 64.3813C133.33 57.4956 129.075 57.4956 129.074 64.3813C129.074 71.8684 127.032 79.0489 123.397 84.343C119.761 89.6372 114.831 92.6115 109.69 92.6115C104.549 92.6115 99.6186 89.6372 95.9834 84.343C92.3482 79.0489 90.3059 71.8684 90.3059 64.3813C90.3059 58.1842 86.0499 58.1842 86.0499 64.3813Z" fill="url(#paint104_linear_36_83)"/>
<path d="M86.0499 67.8241C86.0499 76.9551 88.5405 85.7122 92.9739 92.1688C97.4073 98.6254 103.42 102.253 109.69 102.253C115.96 102.253 121.973 98.6254 126.406 92.1688C130.839 85.7122 133.33 76.9552 133.33 67.8242C133.33 60.9385 129.075 60.9385 129.074 67.8241C129.074 75.3113 127.032 82.4917 123.397 87.7859C119.761 93.0801 114.831 96.0543 109.69 96.0543C104.549 96.0543 99.6186 93.0801 95.9834 87.7859C92.3482 82.4917 90.3059 75.3113 90.3059 67.8241C90.3059 61.6271 86.0499 61.6271 86.0499 67.8241Z" fill="url(#paint105_linear_36_83)"/>
<path d="M86.0499 72.6441C86.0499 81.7751 88.5405 90.5322 92.9739 96.9888C97.4073 103.445 103.42 107.073 109.69 107.073C115.96 107.073 121.973 103.445 126.406 96.9888C130.839 90.5322 133.33 81.7751 133.33 72.6441C133.33 65.7584 129.075 65.7584 129.074 72.6441C129.074 80.1312 127.032 87.3117 123.397 92.6059C119.761 97.9001 114.831 100.874 109.69 100.874C104.549 100.874 99.6186 97.9001 95.9834 92.6059C92.3482 87.3117 90.3059 80.1312 90.3059 72.6441C90.3059 66.4471 86.0499 66.4471 86.0499 72.6441Z" fill="url(#paint106_linear_36_83)"/>
<path d="M86.0499 78.1527C86.0499 87.2837 88.5405 96.0407 92.9739 102.497C97.4073 108.954 103.42 112.581 109.69 112.581C115.96 112.581 121.973 108.954 126.406 102.497C130.839 96.0407 133.33 87.2837 133.33 78.1527C133.33 71.267 129.075 71.267 129.074 78.1527C129.074 85.6398 127.032 92.8203 123.397 98.1145C119.761 103.409 114.831 106.383 109.69 106.383C104.549 106.383 99.6186 103.409 95.9834 98.1144C92.3482 92.8203 90.3059 85.6398 90.3059 78.1527C90.3059 71.9556 86.0499 71.9556 86.0499 78.1527Z" fill="url(#paint107_linear_36_83)"/>
<path d="M86.0499 84.3498C86.0499 93.4808 88.5405 102.238 92.9739 108.694C97.4073 115.151 103.42 118.778 109.69 118.778C115.96 118.778 121.973 115.151 126.406 108.694C130.839 102.238 133.33 93.4808 133.33 84.3498C133.33 77.4641 129.075 77.4641 129.074 84.3498C129.074 91.8369 127.032 99.0174 123.397 104.312C119.761 109.606 114.831 112.58 109.69 112.58C104.549 112.58 99.6186 109.606 95.9834 104.312C92.3482 99.0174 90.3059 91.8369 90.3059 84.3498C90.3059 78.1528 86.0499 78.1528 86.0499 84.3498Z" fill="url(#paint108_linear_36_83)"/>
<path d="M172.1 64.3813C172.1 73.5123 174.59 82.2693 179.024 88.7259C183.457 95.1825 189.47 98.8098 195.74 98.8098C202.01 98.8098 208.023 95.1825 212.456 88.7259C216.889 82.2693 219.38 73.5123 219.38 64.3813C219.38 57.4956 215.125 57.4956 215.124 64.3813C215.124 71.8684 213.082 79.0489 209.446 84.343C205.811 89.6372 200.881 92.6115 195.74 92.6115C190.599 92.6115 185.669 89.6372 182.033 84.343C178.398 79.0489 176.356 71.8684 176.356 64.3813C176.356 58.1842 172.1 58.1842 172.1 64.3813Z" fill="url(#paint109_linear_36_83)"/>
<path d="M172.1 67.8241C172.1 76.9551 174.59 85.7122 179.024 92.1688C183.457 98.6254 189.47 102.253 195.74 102.253C202.01 102.253 208.023 98.6254 212.456 92.1688C216.889 85.7122 219.38 76.9552 219.38 67.8242C219.38 60.9385 215.125 60.9385 215.124 67.8241C215.124 75.3113 213.082 82.4917 209.446 87.7859C205.811 93.0801 200.881 96.0543 195.74 96.0543C190.599 96.0543 185.669 93.0801 182.033 87.7859C178.398 82.4917 176.356 75.3113 176.356 67.8241C176.356 61.6271 172.1 61.6271 172.1 67.8241Z" fill="url(#paint110_linear_36_83)"/>
<path d="M172.1 72.6441C172.1 81.7751 174.59 90.5322 179.024 96.9888C183.457 103.445 189.47 107.073 195.74 107.073C202.01 107.073 208.023 103.445 212.456 96.9888C216.889 90.5322 219.38 81.7751 219.38 72.6441C219.38 65.7584 215.125 65.7584 215.124 72.6441C215.124 80.1312 213.082 87.3117 209.446 92.6059C205.811 97.9001 200.881 100.874 195.74 100.874C190.599 100.874 185.669 97.9001 182.033 92.6059C178.398 87.3117 176.356 80.1312 176.356 72.6441C176.356 66.4471 172.1 66.4471 172.1 72.6441Z" fill="url(#paint111_linear_36_83)"/>
<path d="M172.1 78.1527C172.1 87.2837 174.59 96.0407 179.024 102.497C183.457 108.954 189.47 112.581 195.74 112.581C202.01 112.581 208.023 108.954 212.456 102.497C216.889 96.0407 219.38 87.2837 219.38 78.1527C219.38 71.267 215.125 71.267 215.124 78.1527C215.124 85.6398 213.082 92.8203 209.446 98.1145C205.811 103.409 200.881 106.383 195.74 106.383C190.599 106.383 185.669 103.409 182.033 98.1144C178.398 92.8203 176.356 85.6398 176.356 78.1527C176.356 71.9556 172.1 71.9556 172.1 78.1527Z" fill="url(#paint112_linear_36_83)"/>
<path d="M172.1 84.3498C172.1 93.4808 174.59 102.238 179.024 108.694C183.457 115.151 189.47 118.778 195.74 118.778C202.01 118.778 208.023 115.151 212.456 108.694C216.889 102.238 219.38 93.4808 219.38 84.3498C219.38 77.4641 215.125 77.4641 215.124 84.3498C215.124 91.8369 213.082 99.0174 209.446 104.312C205.811 109.606 200.881 112.58 195.74 112.58C190.599 112.58 185.669 109.606 182.033 104.312C178.398 99.0174 176.356 91.8369 176.356 84.3498C176.356 78.1528 172.1 78.1528 172.1 84.3498Z" fill="url(#paint113_linear_36_83)"/>
<path d="M258.15 64.3813C258.15 73.5123 260.64 82.2693 265.074 88.7259C269.507 95.1825 275.52 98.8098 281.79 98.8098C288.06 98.8098 294.072 95.1825 298.506 88.7259C302.939 82.2693 305.43 73.5123 305.43 64.3813C305.43 57.4956 301.175 57.4956 301.174 64.3813C301.174 71.8684 299.132 79.0489 295.496 84.343C291.861 89.6372 286.931 92.6115 281.79 92.6115C276.649 92.6115 271.718 89.6372 268.083 84.343C264.448 79.0489 262.406 71.8684 262.406 64.3813C262.406 58.1842 258.15 58.1842 258.15 64.3813Z" fill="url(#paint114_linear_36_83)"/>
<path d="M258.15 67.8241C258.15 76.9551 260.64 85.7122 265.074 92.1688C269.507 98.6254 275.52 102.253 281.79 102.253C288.06 102.253 294.072 98.6254 298.506 92.1688C302.939 85.7122 305.43 76.9552 305.43 67.8242C305.43 60.9385 301.175 60.9385 301.174 67.8241C301.174 75.3113 299.132 82.4917 295.496 87.7859C291.861 93.0801 286.931 96.0543 281.79 96.0543C276.649 96.0543 271.718 93.0801 268.083 87.7859C264.448 82.4917 262.406 75.3113 262.406 67.8241C262.406 61.6271 258.15 61.6271 258.15 67.8241Z" fill="url(#paint115_linear_36_83)"/>
<path d="M258.15 72.6441C258.15 81.7751 260.64 90.5322 265.074 96.9888C269.507 103.445 275.52 107.073 281.79 107.073C288.06 107.073 294.072 103.445 298.506 96.9888C302.939 90.5322 305.43 81.7751 305.43 72.6441C305.43 65.7584 301.175 65.7584 301.174 72.6441C301.174 80.1312 299.132 87.3117 295.496 92.6059C291.861 97.9001 286.931 100.874 281.79 100.874C276.649 100.874 271.718 97.9001 268.083 92.6059C264.448 87.3117 262.406 80.1312 262.406 72.6441C262.406 66.4471 258.15 66.4471 258.15 72.6441Z" fill="url(#paint116_linear_36_83)"/>
<path d="M258.15 78.1527C258.15 87.2837 260.64 96.0407 265.074 102.497C269.507 108.954 275.52 112.581 281.79 112.581C288.06 112.581 294.072 108.954 298.506 102.497C302.939 96.0407 305.43 87.2837 305.43 78.1527C305.43 71.267 301.175 71.267 301.174 78.1527C301.174 85.6398 299.132 92.8203 295.496 98.1145C291.861 103.409 286.931 106.383 281.79 106.383C276.649 106.383 271.718 103.409 268.083 98.1144C264.448 92.8203 262.406 85.6398 262.406 78.1527C262.406 71.9556 258.15 71.9556 258.15 78.1527Z" fill="url(#paint117_linear_36_83)"/>
<path d="M258.15 84.3498C258.15 93.4808 260.64 102.238 265.074 108.694C269.507 115.151 275.52 118.778 281.79 118.778C288.06 118.778 294.072 115.151 298.506 108.694C302.939 102.238 305.43 93.4808 305.43 84.3498C305.43 77.4641 301.175 77.4641 301.174 84.3498C301.174 91.8369 299.132 99.0174 295.496 104.312C291.861 109.606 286.931 112.58 281.79 112.58C276.649 112.58 271.718 109.606 268.083 104.312C264.448 99.0174 262.406 91.8369 262.406 84.3498C262.406 78.1528 258.15 78.1528 258.15 84.3498Z" fill="url(#paint118_linear_36_83)"/>
<path d="M129.075 54.3971C129.075 45.2661 131.565 36.509 135.999 30.0524C140.432 23.5958 146.445 19.9686 152.715 19.9686C158.985 19.9686 164.998 23.5958 169.431 30.0524C173.864 36.509 176.355 45.266 176.355 54.397C176.355 61.2827 172.1 61.2827 172.099 54.397C172.099 46.9099 170.057 39.7295 166.422 34.4353C162.786 29.1411 157.856 26.1669 152.715 26.1669C147.574 26.1669 142.644 29.1411 139.008 34.4353C135.373 39.7295 133.331 46.91 133.331 54.3971C133.331 60.5941 129.075 60.5941 129.075 54.3971Z" fill="url(#paint119_linear_36_83)"/>
<path d="M129.075 50.9542C129.075 41.8232 131.565 33.0662 135.999 26.6096C140.432 20.153 146.445 16.5257 152.715 16.5257C158.985 16.5257 164.998 20.153 169.431 26.6096C173.864 33.0662 176.355 41.8232 176.355 50.9542C176.355 57.8399 172.1 57.8399 172.099 50.9542C172.099 43.4671 170.057 36.2866 166.422 30.9925C162.786 25.6983 157.856 22.724 152.715 22.724C147.574 22.724 142.644 25.6983 139.008 30.9925C135.373 36.2866 133.331 43.4671 133.331 50.9542C133.331 57.1513 129.075 57.1513 129.075 50.9542Z" fill="url(#paint120_linear_36_83)"/>
<path d="M129.075 46.1342C129.075 37.0032 131.565 28.2462 135.999 21.7896C140.432 15.333 146.445 11.7057 152.715 11.7057C158.985 11.7057 164.998 15.333 169.431 21.7896C173.864 28.2462 176.355 37.0032 176.355 46.1342C176.355 53.0199 172.1 53.0199 172.099 46.1342C172.099 38.6471 170.057 31.4666 166.422 26.1725C162.786 20.8783 157.856 17.9041 152.715 17.9041C147.574 17.9041 142.644 20.8783 139.008 26.1725C135.373 31.4666 133.331 38.6471 133.331 46.1342C133.331 52.3313 129.075 52.3313 129.075 46.1342Z" fill="url(#paint121_linear_36_83)"/>
<path d="M129.075 40.6257C129.075 31.4947 131.565 22.7376 135.999 16.281C140.432 9.82444 146.445 6.19718 152.715 6.19717C158.985 6.19717 164.998 9.82444 169.431 16.281C173.864 22.7376 176.355 31.4946 176.355 40.6256C176.355 47.5113 172.1 47.5114 172.099 40.6257C172.099 33.1386 170.057 25.9581 166.422 20.6639C162.786 15.3697 157.856 12.3955 152.715 12.3955C147.574 12.3955 142.644 15.3697 139.008 20.6639C135.373 25.9581 133.331 33.1386 133.331 40.6257C133.331 46.8227 129.075 46.8227 129.075 40.6257Z" fill="url(#paint122_linear_36_83)"/>
<path d="M129.075 34.4285C129.075 25.2975 131.565 16.5405 135.999 10.0839C140.432 3.6273 146.445 3.16061e-05 152.715 3.05176e-05C158.985 2.94291e-05 164.998 3.6273 169.431 10.0839C173.864 16.5405 176.355 25.2975 176.355 34.4285C176.355 41.3142 172.1 41.3142 172.099 34.4285C172.099 26.9414 170.057 19.761 166.422 14.4668C162.786 9.17258 157.856 6.19836 152.715 6.19836C147.574 6.19837 142.644 9.17258 139.008 14.4668C135.373 19.761 133.331 26.9414 133.331 34.4285C133.331 40.6256 129.075 40.6256 129.075 34.4285Z" fill="url(#paint123_linear_36_83)"/>
<path d="M47.2802 33.74L47.2802 85.3827H43.025L43.025 33.74H47.2802Z" fill="url(#paint124_linear_36_83)"/>
<path d="M176.355 33.74V85.3827H172.1V33.74H176.355Z" fill="url(#paint125_linear_36_83)"/>
<path d="M219.38 33.74V85.3827H215.125V33.74H219.38Z" fill="url(#paint126_linear_36_83)"/>
<path d="M262.405 33.74L262.405 85.3827H258.15L258.15 33.74H262.405Z" fill="url(#paint127_linear_36_83)"/>
<path d="M305.43 58.5285L305.43 85.3827H301.175L301.175 58.5285H305.43Z" fill="url(#paint128_linear_36_83)"/>
<path d="M4.25522 59.217L4.25522 85.3827H0L0 59.217H4.25522Z" fill="url(#paint129_linear_36_83)"/>
<path d="M90.3051 33.74V85.3827H86.0499V33.74H90.3051Z" fill="url(#paint130_linear_36_83)"/>
<path d="M133.33 33.74V85.3827H129.075V33.74H133.33Z" fill="url(#paint131_linear_36_83)"/>
<defs>
<linearGradient id="paint0_linear_36_83" x1="-6.87338e-05" y1="-1.1604e-05" x2="284.971" y2="-17.9515" gradientUnits="userSpaceOnUse">
<stop stop-color="#FFA748"/>
<stop offset="1" stop-color="#F54A79"/>
</linearGradient>
<linearGradient id="paint1_linear_36_83" x1="-6.87338e-05" y1="-1.1604e-05" x2="284.971" y2="-17.9515" gradientUnits="userSpaceOnUse">
<stop stop-color="#FFA748"/>
<stop offset="1" stop-color="#F54A79"/>
</linearGradient>
<linearGradient id="paint2_linear_36_83" x1="-6.87338e-05" y1="-1.1604e-05" x2="284.971" y2="-17.9515" gradientUnits="userSpaceOnUse">
<stop stop-color="#FFA748"/>
<stop offset="1" stop-color="#F54A79"/>
</linearGradient>
<linearGradient id="paint3_linear_36_83" x1="-6.87338e-05" y1="-1.1604e-05" x2="284.971" y2="-17.9515" gradientUnits="userSpaceOnUse">
<stop stop-color="#FFA748"/>
<stop offset="1" stop-color="#F54A79"/>
</linearGradient>
<linearGradient id="paint4_linear_36_83" x1="-6.87338e-05" y1="-1.1604e-05" x2="284.971" y2="-17.9515" gradientUnits="userSpaceOnUse">
<stop stop-color="#FFA748"/>
<stop offset="1" stop-color="#F54A79"/>
</linearGradient>
<linearGradient id="paint5_linear_36_83" x1="-6.87338e-05" y1="-1.1604e-05" x2="284.971" y2="-17.9515" gradientUnits="userSpaceOnUse">
<stop stop-color="#FFA748"/>
<stop offset="1" stop-color="#F54A79"/>
</linearGradient>
<linearGradient id="paint6_linear_36_83" x1="-6.87338e-05" y1="-1.1604e-05" x2="284.971" y2="-17.9515" gradientUnits="userSpaceOnUse">
<stop stop-color="#FFA748"/>
<stop offset="1" stop-color="#F54A79"/>
</linearGradient>
<linearGradient id="paint7_linear_36_83" x1="-6.87338e-05" y1="-1.1604e-05" x2="284.971" y2="-17.9515" gradientUnits="userSpaceOnUse">
<stop stop-color="#FFA748"/>
<stop offset="1" stop-color="#F54A79"/>
</linearGradient>
<linearGradient id="paint8_linear_36_83" x1="-6.87338e-05" y1="-1.1604e-05" x2="284.971" y2="-17.9515" gradientUnits="userSpaceOnUse">
<stop stop-color="#FFA748"/>
<stop offset="1" stop-color="#F54A79"/>
</linearGradient>
<linearGradient id="paint9_linear_36_83" x1="-6.87338e-05" y1="-1.1604e-05" x2="284.971" y2="-17.9515" gradientUnits="userSpaceOnUse">
<stop stop-color="#FFA748"/>
<stop offset="1" stop-color="#F54A79"/>
</linearGradient>
<linearGradient id="paint10_linear_36_83" x1="-6.87338e-05" y1="-1.1604e-05" x2="284.971" y2="-17.9515" gradientUnits="userSpaceOnUse">
<stop stop-color="#FFA748"/>
<stop offset="1" stop-color="#F54A79"/>
</linearGradient>
<linearGradient id="paint11_linear_36_83" x1="-6.87338e-05" y1="-1.1604e-05" x2="284.971" y2="-17.9515" gradientUnits="userSpaceOnUse">
<stop stop-color="#FFA748"/>
<stop offset="1" stop-color="#F54A79"/>
</linearGradient>
<linearGradient id="paint12_linear_36_83" x1="-6.87338e-05" y1="-1.1604e-05" x2="284.971" y2="-17.9515" gradientUnits="userSpaceOnUse">
<stop stop-color="#FFA748"/>
<stop offset="1" stop-color="#F54A79"/>
</linearGradient>
<linearGradient id="paint13_linear_36_83" x1="-6.87338e-05" y1="-1.1604e-05" x2="284.971" y2="-17.9515" gradientUnits="userSpaceOnUse">
<stop stop-color="#FFA748"/>
<stop offset="1" stop-color="#F54A79"/>
</linearGradient>
<linearGradient id="paint14_linear_36_83" x1="-6.87338e-05" y1="-1.1604e-05" x2="284.971" y2="-17.9515" gradientUnits="userSpaceOnUse">
<stop stop-color="#FFA748"/>
<stop offset="1" stop-color="#F54A79"/>
</linearGradient>
<linearGradient id="paint15_linear_36_83" x1="-6.87338e-05" y1="-1.1604e-05" x2="284.971" y2="-17.9515" gradientUnits="userSpaceOnUse">
<stop stop-color="#FFA748"/>
<stop offset="1" stop-color="#F54A79"/>
</linearGradient>
<linearGradient id="paint16_linear_36_83" x1="-6.87338e-05" y1="-1.1604e-05" x2="284.971" y2="-17.9515" gradientUnits="userSpaceOnUse">
<stop stop-color="#FFA748"/>
<stop offset="1" stop-color="#F54A79"/>
</linearGradient>
<linearGradient id="paint17_linear_36_83" x1="-6.87338e-05" y1="-1.1604e-05" x2="284.971" y2="-17.9515" gradientUnits="userSpaceOnUse">
<stop stop-color="#FFA748"/>
<stop offset="1" stop-color="#F54A79"/>
</linearGradient>
<linearGradient id="paint18_linear_36_83" x1="-6.87338e-05" y1="-1.1604e-05" x2="284.971" y2="-17.9515" gradientUnits="userSpaceOnUse">
<stop stop-color="#FFA748"/>
<stop offset="1" stop-color="#F54A79"/>
</linearGradient>
<linearGradient id="paint19_linear_36_83" x1="-6.87338e-05" y1="-1.1604e-05" x2="284.971" y2="-17.9515" gradientUnits="userSpaceOnUse">
<stop stop-color="#FFA748"/>
<stop offset="1" stop-color="#F54A79"/>
</linearGradient>
<linearGradient id="paint20_linear_36_83" x1="-6.87338e-05" y1="-1.1604e-05" x2="284.971" y2="-17.9515" gradientUnits="userSpaceOnUse">
<stop stop-color="#FFA748"/>
<stop offset="1" stop-color="#F54A79"/>
</linearGradient>
<linearGradient id="paint21_linear_36_83" x1="-6.87338e-05" y1="-1.1604e-05" x2="284.971" y2="-17.9515" gradientUnits="userSpaceOnUse">
<stop stop-color="#FFA748"/>
<stop offset="1" stop-color="#F54A79"/>
</linearGradient>
<linearGradient id="paint22_linear_36_83" x1="-6.87338e-05" y1="-1.1604e-05" x2="284.971" y2="-17.9515" gradientUnits="userSpaceOnUse">
<stop stop-color="#FFA748"/>
<stop offset="1" stop-color="#F54A79"/>
</linearGradient>
<linearGradient id="paint23_linear_36_83" x1="-6.87338e-05" y1="-1.1604e-05" x2="284.971" y2="-17.9515" gradientUnits="userSpaceOnUse">
<stop stop-color="#FFA748"/>
<stop offset="1" stop-color="#F54A79"/>
</linearGradient>
<linearGradient id="paint24_linear_36_83" x1="-6.87338e-05" y1="-1.1604e-05" x2="284.971" y2="-17.9515" gradientUnits="userSpaceOnUse">
<stop stop-color="#FFA748"/>
<stop offset="1" stop-color="#F54A79"/>
</linearGradient>
<linearGradient id="paint25_linear_36_83" x1="-6.87338e-05" y1="-1.1604e-05" x2="284.971" y2="-17.9515" gradientUnits="userSpaceOnUse">
<stop stop-color="#FFA748"/>
<stop offset="1" stop-color="#F54A79"/>
</linearGradient>
<linearGradient id="paint26_linear_36_83" x1="-6.87338e-05" y1="-1.1604e-05" x2="284.971" y2="-17.9515" gradientUnits="userSpaceOnUse">
<stop stop-color="#FFA748"/>
<stop offset="1" stop-color="#F54A79"/>
</linearGradient>
<linearGradient id="paint27_linear_36_83" x1="-6.87338e-05" y1="-1.1604e-05" x2="284.971" y2="-17.9515" gradientUnits="userSpaceOnUse">
<stop stop-color="#FFA748"/>
<stop offset="1" stop-color="#F54A79"/>
</linearGradient>
<linearGradient id="paint28_linear_36_83" x1="-6.87338e-05" y1="-1.1604e-05" x2="284.971" y2="-17.9515" gradientUnits="userSpaceOnUse">
<stop stop-color="#FFA748"/>
<stop offset="1" stop-color="#F54A79"/>
</linearGradient>
<linearGradient id="paint29_linear_36_83" x1="-6.87338e-05" y1="-1.1604e-05" x2="284.971" y2="-17.9515" gradientUnits="userSpaceOnUse">
<stop stop-color="#FFA748"/>
<stop offset="1" stop-color="#F54A79"/>
</linearGradient>
<linearGradient id="paint30_linear_36_83" x1="-6.87338e-05" y1="-1.1604e-05" x2="284.971" y2="-17.9515" gradientUnits="userSpaceOnUse">
<stop stop-color="#FFA748"/>
<stop offset="1" stop-color="#F54A79"/>
</linearGradient>
<linearGradient id="paint31_linear_36_83" x1="-6.87338e-05" y1="-1.1604e-05" x2="284.971" y2="-17.9515" gradientUnits="userSpaceOnUse">
<stop stop-color="#FFA748"/>
<stop offset="1" stop-color="#F54A79"/>
</linearGradient>
<linearGradient id="paint32_linear_36_83" x1="-6.87338e-05" y1="-1.1604e-05" x2="284.971" y2="-17.9515" gradientUnits="userSpaceOnUse">
<stop stop-color="#FFA748"/>
<stop offset="1" stop-color="#F54A79"/>
</linearGradient>
<linearGradient id="paint33_linear_36_83" x1="-6.87338e-05" y1="-1.1604e-05" x2="284.971" y2="-17.9515" gradientUnits="userSpaceOnUse">
<stop stop-color="#FFA748"/>
<stop offset="1" stop-color="#F54A79"/>
</linearGradient>
<linearGradient id="paint34_linear_36_83" x1="-6.87338e-05" y1="-1.1604e-05" x2="284.971" y2="-17.9515" gradientUnits="userSpaceOnUse">
<stop stop-color="#FFA748"/>
<stop offset="1" stop-color="#F54A79"/>
</linearGradient>
<linearGradient id="paint35_linear_36_83" x1="-6.87338e-05" y1="-1.1604e-05" x2="284.971" y2="-17.9515" gradientUnits="userSpaceOnUse">
<stop stop-color="#FFA748"/>
<stop offset="1" stop-color="#F54A79"/>
</linearGradient>
<linearGradient id="paint36_linear_36_83" x1="-6.87338e-05" y1="-1.1604e-05" x2="284.971" y2="-17.9515" gradientUnits="userSpaceOnUse">
<stop stop-color="#FFA748"/>
<stop offset="1" stop-color="#F54A79"/>
</linearGradient>
<linearGradient id="paint37_linear_36_83" x1="-6.87338e-05" y1="-1.1604e-05" x2="284.971" y2="-17.9515" gradientUnits="userSpaceOnUse">
<stop stop-color="#FFA748"/>
<stop offset="1" stop-color="#F54A79"/>
</linearGradient>
<linearGradient id="paint38_linear_36_83" x1="-6.87338e-05" y1="-1.1604e-05" x2="284.971" y2="-17.9515" gradientUnits="userSpaceOnUse">
<stop stop-color="#FFA748"/>
<stop offset="1" stop-color="#F54A79"/>
</linearGradient>
<linearGradient id="paint39_linear_36_83" x1="-6.87338e-05" y1="-1.1604e-05" x2="284.971" y2="-17.9515" gradientUnits="userSpaceOnUse">
<stop stop-color="#FFA748"/>
<stop offset="1" stop-color="#F54A79"/>
</linearGradient>
<linearGradient id="paint40_linear_36_83" x1="-6.87338e-05" y1="-1.1604e-05" x2="284.971" y2="-17.9515" gradientUnits="userSpaceOnUse">
<stop stop-color="#FFA748"/>
<stop offset="1" stop-color="#F54A79"/>
</linearGradient>
<linearGradient id="paint41_linear_36_83" x1="-6.87338e-05" y1="-1.1604e-05" x2="284.971" y2="-17.9515" gradientUnits="userSpaceOnUse">
<stop stop-color="#FFA748"/>
<stop offset="1" stop-color="#F54A79"/>
</linearGradient>
<linearGradient id="paint42_linear_36_83" x1="-6.87338e-05" y1="-1.1604e-05" x2="284.971" y2="-17.9515" gradientUnits="userSpaceOnUse">
<stop stop-color="#FFA748"/>
<stop offset="1" stop-color="#F54A79"/>
</linearGradient>
<linearGradient id="paint43_linear_36_83" x1="-6.87338e-05" y1="-1.1604e-05" x2="284.971" y2="-17.9515" gradientUnits="userSpaceOnUse">
<stop stop-color="#FFA748"/>
<stop offset="1" stop-color="#F54A79"/>
</linearGradient>
<linearGradient id="paint44_linear_36_83" x1="-6.87338e-05" y1="-1.1604e-05" x2="284.971" y2="-17.9515" gradientUnits="userSpaceOnUse">
<stop stop-color="#FFA748"/>
<stop offset="1" stop-color="#F54A79"/>
</linearGradient>
<linearGradient id="paint45_linear_36_83" x1="-6.87338e-05" y1="-1.1604e-05" x2="284.971" y2="-17.9515" gradientUnits="userSpaceOnUse">
<stop stop-color="#FFA748"/>
<stop offset="1" stop-color="#F54A79"/>
</linearGradient>
<linearGradient id="paint46_linear_36_83" x1="-6.87338e-05" y1="-1.1604e-05" x2="284.971" y2="-17.9515" gradientUnits="userSpaceOnUse">
<stop stop-color="#FFA748"/>
<stop offset="1" stop-color="#F54A79"/>
</linearGradient>
<linearGradient id="paint47_linear_36_83" x1="-6.87338e-05" y1="-1.1604e-05" x2="284.971" y2="-17.9515" gradientUnits="userSpaceOnUse">
<stop stop-color="#FFA748"/>
<stop offset="1" stop-color="#F54A79"/>
</linearGradient>
<linearGradient id="paint48_linear_36_83" x1="-6.87338e-05" y1="-1.1604e-05" x2="284.971" y2="-17.9515" gradientUnits="userSpaceOnUse">
<stop stop-color="#FFA748"/>
<stop offset="1" stop-color="#F54A79"/>
</linearGradient>
<linearGradient id="paint49_linear_36_83" x1="-6.87338e-05" y1="-1.1604e-05" x2="284.971" y2="-17.9515" gradientUnits="userSpaceOnUse">
<stop stop-color="#FFA748"/>
<stop offset="1" stop-color="#F54A79"/>
</linearGradient>
<linearGradient id="paint50_linear_36_83" x1="-6.87338e-05" y1="-1.1604e-05" x2="284.971" y2="-17.9515" gradientUnits="userSpaceOnUse">
<stop stop-color="#FFA748"/>
<stop offset="1" stop-color="#F54A79"/>
</linearGradient>
<linearGradient id="paint51_linear_36_83" x1="-6.87338e-05" y1="-1.1604e-05" x2="284.971" y2="-17.9515" gradientUnits="userSpaceOnUse">
<stop stop-color="#FFA748"/>
<stop offset="1" stop-color="#F54A79"/>
</linearGradient>
<linearGradient id="paint52_linear_36_83" x1="-6.87338e-05" y1="-1.1604e-05" x2="284.971" y2="-17.9515" gradientUnits="userSpaceOnUse">
<stop stop-color="#FFA748"/>
<stop offset="1" stop-color="#F54A79"/>
</linearGradient>
<linearGradient id="paint53_linear_36_83" x1="-6.87338e-05" y1="-1.1604e-05" x2="284.971" y2="-17.9515" gradientUnits="userSpaceOnUse">
<stop stop-color="#FFA748"/>
<stop offset="1" stop-color="#F54A79"/>
</linearGradient>
<linearGradient id="paint54_linear_36_83" x1="-6.87338e-05" y1="-1.1604e-05" x2="284.971" y2="-17.9515" gradientUnits="userSpaceOnUse">
<stop stop-color="#FFA748"/>
<stop offset="1" stop-color="#F54A79"/>
</linearGradient>
<linearGradient id="paint55_linear_36_83" x1="-6.87338e-05" y1="-1.1604e-05" x2="284.971" y2="-17.9515" gradientUnits="userSpaceOnUse">
<stop stop-color="#FFA748"/>
<stop offset="1" stop-color="#F54A79"/>
</linearGradient>
<linearGradient id="paint56_linear_36_83" x1="-6.87338e-05" y1="-1.1604e-05" x2="284.971" y2="-17.9515" gradientUnits="userSpaceOnUse">
<stop stop-color="#FFA748"/>
<stop offset="1" stop-color="#F54A79"/>
</linearGradient>
<linearGradient id="paint57_linear_36_83" x1="-6.87338e-05" y1="-1.1604e-05" x2="284.971" y2="-17.9515" gradientUnits="userSpaceOnUse">
<stop stop-color="#FFA748"/>
<stop offset="1" stop-color="#F54A79"/>
</linearGradient>
<linearGradient id="paint58_linear_36_83" x1="-6.87338e-05" y1="-1.1604e-05" x2="284.971" y2="-17.9515" gradientUnits="userSpaceOnUse">
<stop stop-color="#FFA748"/>
<stop offset="1" stop-color="#F54A79"/>
</linearGradient>
<linearGradient id="paint59_linear_36_83" x1="-6.87338e-05" y1="-1.1604e-05" x2="284.971" y2="-17.9515" gradientUnits="userSpaceOnUse">
<stop stop-color="#FFA748"/>
<stop offset="1" stop-color="#F54A79"/>
</linearGradient>
<linearGradient id="paint60_linear_36_83" x1="-6.87338e-05" y1="-1.1604e-05" x2="284.971" y2="-17.9515" gradientUnits="userSpaceOnUse">
<stop stop-color="#FFA748"/>
<stop offset="1" stop-color="#F54A79"/>
</linearGradient>
<linearGradient id="paint61_linear_36_83" x1="-6.87338e-05" y1="-1.1604e-05" x2="284.971" y2="-17.9515" gradientUnits="userSpaceOnUse">
<stop stop-color="#FFA748"/>
<stop offset="1" stop-color="#F54A79"/>
</linearGradient>
<linearGradient id="paint62_linear_36_83" x1="-6.87338e-05" y1="-1.1604e-05" x2="284.971" y2="-17.9515" gradientUnits="userSpaceOnUse">
<stop stop-color="#FFA748"/>
<stop offset="1" stop-color="#F54A79"/>
</linearGradient>
<linearGradient id="paint63_linear_36_83" x1="-6.87338e-05" y1="-1.1604e-05" x2="284.971" y2="-17.9515" gradientUnits="userSpaceOnUse">
<stop stop-color="#FFA748"/>
<stop offset="1" stop-color="#F54A79"/>
</linearGradient>
<linearGradient id="paint64_linear_36_83" x1="-6.87338e-05" y1="-1.1604e-05" x2="284.971" y2="-17.9515" gradientUnits="userSpaceOnUse">
<stop stop-color="#FFA748"/>
<stop offset="1" stop-color="#F54A79"/>
</linearGradient>
<linearGradient id="paint65_linear_36_83" x1="-6.87338e-05" y1="-1.1604e-05" x2="284.971" y2="-17.9515" gradientUnits="userSpaceOnUse">
<stop stop-color="#FFA748"/>
<stop offset="1" stop-color="#F54A79"/>
</linearGradient>
<linearGradient id="paint66_linear_36_83" x1="-6.87338e-05" y1="-1.1604e-05" x2="284.971" y2="-17.9515" gradientUnits="userSpaceOnUse">
<stop stop-color="#FFA748"/>
<stop offset="1" stop-color="#F54A79"/>
</linearGradient>
<linearGradient id="paint67_linear_36_83" x1="-6.87338e-05" y1="-1.1604e-05" x2="284.971" y2="-17.9515" gradientUnits="userSpaceOnUse">
<stop stop-color="#FFA748"/>
<stop offset="1" stop-color="#F54A79"/>
</linearGradient>
<linearGradient id="paint68_linear_36_83" x1="-6.87338e-05" y1="-1.1604e-05" x2="284.971" y2="-17.9515" gradientUnits="userSpaceOnUse">
<stop stop-color="#FFA748"/>
<stop offset="1" stop-color="#F54A79"/>
</linearGradient>
<linearGradient id="paint69_linear_36_83" x1="-6.87338e-05" y1="-1.1604e-05" x2="284.971" y2="-17.9515" gradientUnits="userSpaceOnUse">
<stop stop-color="#FFA748"/>
<stop offset="1" stop-color="#F54A79"/>
</linearGradient>
<linearGradient id="paint70_linear_36_83" x1="-6.87338e-05" y1="-1.1604e-05" x2="284.971" y2="-17.9515" gradientUnits="userSpaceOnUse">
<stop stop-color="#FFA748"/>
<stop offset="1" stop-color="#F54A79"/>
</linearGradient>
<linearGradient id="paint71_linear_36_83" x1="-6.87338e-05" y1="-1.1604e-05" x2="284.971" y2="-17.9515" gradientUnits="userSpaceOnUse">
<stop stop-color="#FFA748"/>
<stop offset="1" stop-color="#F54A79"/>
</linearGradient>
<linearGradient id="paint72_linear_36_83" x1="-6.87338e-05" y1="-1.1604e-05" x2="284.971" y2="-17.9515" gradientUnits="userSpaceOnUse">
<stop stop-color="#FFA748"/>
<stop offset="1" stop-color="#F54A79"/>
</linearGradient>
<linearGradient id="paint73_linear_36_83" x1="-6.87338e-05" y1="-1.1604e-05" x2="284.971" y2="-17.9515" gradientUnits="userSpaceOnUse">
<stop stop-color="#FFA748"/>
<stop offset="1" stop-color="#F54A79"/>
</linearGradient>
<linearGradient id="paint74_linear_36_83" x1="-6.87338e-05" y1="-1.1604e-05" x2="284.971" y2="-17.9515" gradientUnits="userSpaceOnUse">
<stop stop-color="#FFA748"/>
<stop offset="1" stop-color="#F54A79"/>
</linearGradient>
<linearGradient id="paint75_linear_36_83" x1="-6.87338e-05" y1="-1.1604e-05" x2="284.971" y2="-17.9515" gradientUnits="userSpaceOnUse">
<stop stop-color="#FFA748"/>
<stop offset="1" stop-color="#F54A79"/>
</linearGradient>
<linearGradient id="paint76_linear_36_83" x1="-6.87338e-05" y1="-1.1604e-05" x2="284.971" y2="-17.9515" gradientUnits="userSpaceOnUse">
<stop stop-color="#FFA748"/>
<stop offset="1" stop-color="#F54A79"/>
</linearGradient>
<linearGradient id="paint77_linear_36_83" x1="-6.87338e-05" y1="-1.1604e-05" x2="284.971" y2="-17.9515" gradientUnits="userSpaceOnUse">
<stop stop-color="#FFA748"/>
<stop offset="1" stop-color="#F54A79"/>
</linearGradient>
<linearGradient id="paint78_linear_36_83" x1="-6.87338e-05" y1="-1.1604e-05" x2="284.971" y2="-17.9515" gradientUnits="userSpaceOnUse">
<stop stop-color="#FFA748"/>
<stop offset="1" stop-color="#F54A79"/>
</linearGradient>
<linearGradient id="paint79_linear_36_83" x1="-6.87338e-05" y1="-1.1604e-05" x2="284.971" y2="-17.9515" gradientUnits="userSpaceOnUse">
<stop stop-color="#FFA748"/>
<stop offset="1" stop-color="#F54A79"/>
</linearGradient>
<linearGradient id="paint80_linear_36_83" x1="-6.87338e-05" y1="-1.1604e-05" x2="284.971" y2="-17.9515" gradientUnits="userSpaceOnUse">
<stop stop-color="#FFA748"/>
<stop offset="1" stop-color="#F54A79"/>
</linearGradient>
<linearGradient id="paint81_linear_36_83" x1="-6.87338e-05" y1="-1.1604e-05" x2="284.971" y2="-17.9515" gradientUnits="userSpaceOnUse">
<stop stop-color="#FFA748"/>
<stop offset="1" stop-color="#F54A79"/>
</linearGradient>
<linearGradient id="paint82_linear_36_83" x1="-6.87338e-05" y1="-1.1604e-05" x2="284.971" y2="-17.9515" gradientUnits="userSpaceOnUse">
<stop stop-color="#FFA748"/>
<stop offset="1" stop-color="#F54A79"/>
</linearGradient>
<linearGradient id="paint83_linear_36_83" x1="-6.87338e-05" y1="-1.1604e-05" x2="284.971" y2="-17.9515" gradientUnits="userSpaceOnUse">
<stop stop-color="#FFA748"/>
<stop offset="1" stop-color="#F54A79"/>
</linearGradient>
<linearGradient id="paint84_linear_36_83" x1="-6.87338e-05" y1="-1.1604e-05" x2="284.971" y2="-17.9515" gradientUnits="userSpaceOnUse">
<stop stop-color="#FFA748"/>
<stop offset="1" stop-color="#F54A79"/>
</linearGradient>
<linearGradient id="paint85_linear_36_83" x1="-6.87338e-05" y1="-1.1604e-05" x2="284.971" y2="-17.9515" gradientUnits="userSpaceOnUse">
<stop stop-color="#FFA748"/>
<stop offset="1" stop-color="#F54A79"/>
</linearGradient>
<linearGradient id="paint86_linear_36_83" x1="-6.87338e-05" y1="-1.1604e-05" x2="284.971" y2="-17.9515" gradientUnits="userSpaceOnUse">
<stop stop-color="#FFA748"/>
<stop offset="1" stop-color="#F54A79"/>
</linearGradient>
<linearGradient id="paint87_linear_36_83" x1="-6.87338e-05" y1="-1.1604e-05" x2="284.971" y2="-17.9515" gradientUnits="userSpaceOnUse">
<stop stop-color="#FFA748"/>
<stop offset="1" stop-color="#F54A79"/>
</linearGradient>
<linearGradient id="paint88_linear_36_83" x1="-6.87338e-05" y1="-1.1604e-05" x2="284.971" y2="-17.9515" gradientUnits="userSpaceOnUse">
<stop stop-color="#FFA748"/>
<stop offset="1" stop-color="#F54A79"/>
</linearGradient>
<linearGradient id="paint89_linear_36_83" x1="-6.87338e-05" y1="-1.1604e-05" x2="284.971" y2="-17.9515" gradientUnits="userSpaceOnUse">
<stop stop-color="#FFA748"/>
<stop offset="1" stop-color="#F54A79"/>
</linearGradient>
<linearGradient id="paint90_linear_36_83" x1="-6.87338e-05" y1="-1.1604e-05" x2="284.971" y2="-17.9515" gradientUnits="userSpaceOnUse">
<stop stop-color="#FFA748"/>
<stop offset="1" stop-color="#F54A79"/>
</linearGradient>
<linearGradient id="paint91_linear_36_83" x1="-6.87338e-05" y1="-1.1604e-05" x2="284.971" y2="-17.9515" gradientUnits="userSpaceOnUse">
<stop stop-color="#FFA748"/>
<stop offset="1" stop-color="#F54A79"/>
</linearGradient>
<linearGradient id="paint92_linear_36_83" x1="-6.87338e-05" y1="-1.1604e-05" x2="284.971" y2="-17.9515" gradientUnits="userSpaceOnUse">
<stop stop-color="#FFA748"/>
<stop offset="1" stop-color="#F54A79"/>
</linearGradient>
<linearGradient id="paint93_linear_36_83" x1="-6.87338e-05" y1="-1.1604e-05" x2="284.971" y2="-17.9515" gradientUnits="userSpaceOnUse">
<stop stop-color="#FFA748"/>
<stop offset="1" stop-color="#F54A79"/>
</linearGradient>
<linearGradient id="paint94_linear_36_83" x1="-6.87338e-05" y1="-1.1604e-05" x2="284.971" y2="-17.9515" gradientUnits="userSpaceOnUse">
<stop stop-color="#FFA748"/>
<stop offset="1" stop-color="#F54A79"/>
</linearGradient>
<linearGradient id="paint95_linear_36_83" x1="-6.87338e-05" y1="-1.1604e-05" x2="284.971" y2="-17.9515" gradientUnits="userSpaceOnUse">
<stop stop-color="#FFA748"/>
<stop offset="1" stop-color="#F54A79"/>
</linearGradient>
<linearGradient id="paint96_linear_36_83" x1="-6.87338e-05" y1="-1.1604e-05" x2="284.971" y2="-17.9515" gradientUnits="userSpaceOnUse">
<stop stop-color="#FFA748"/>
<stop offset="1" stop-color="#F54A79"/>
</linearGradient>
<linearGradient id="paint97_linear_36_83" x1="-6.87338e-05" y1="-1.1604e-05" x2="284.971" y2="-17.9515" gradientUnits="userSpaceOnUse">
<stop stop-color="#FFA748"/>
<stop offset="1" stop-color="#F54A79"/>
</linearGradient>
<linearGradient id="paint98_linear_36_83" x1="-6.87338e-05" y1="-1.1604e-05" x2="284.971" y2="-17.9515" gradientUnits="userSpaceOnUse">
<stop stop-color="#FFA748"/>
<stop offset="1" stop-color="#F54A79"/>
</linearGradient>
<linearGradient id="paint99_linear_36_83" x1="-6.87338e-05" y1="-1.1604e-05" x2="284.971" y2="-17.9515" gradientUnits="userSpaceOnUse">
<stop stop-color="#FFA748"/>
<stop offset="1" stop-color="#F54A79"/>
</linearGradient>
<linearGradient id="paint100_linear_36_83" x1="-6.87338e-05" y1="-1.1604e-05" x2="284.971" y2="-17.9515" gradientUnits="userSpaceOnUse">
<stop stop-color="#FFA748"/>
<stop offset="1" stop-color="#F54A79"/>
</linearGradient>
<linearGradient id="paint101_linear_36_83" x1="-6.87338e-05" y1="-1.1604e-05" x2="284.971" y2="-17.9515" gradientUnits="userSpaceOnUse">
<stop stop-color="#FFA748"/>
<stop offset="1" stop-color="#F54A79"/>
</linearGradient>
<linearGradient id="paint102_linear_36_83" x1="-6.87338e-05" y1="-1.1604e-05" x2="284.971" y2="-17.9515" gradientUnits="userSpaceOnUse">
<stop stop-color="#FFA748"/>
<stop offset="1" stop-color="#F54A79"/>
</linearGradient>
<linearGradient id="paint103_linear_36_83" x1="-6.87338e-05" y1="-1.1604e-05" x2="284.971" y2="-17.9515" gradientUnits="userSpaceOnUse">
<stop stop-color="#FFA748"/>
<stop offset="1" stop-color="#F54A79"/>
</linearGradient>
<linearGradient id="paint104_linear_36_83" x1="-6.87338e-05" y1="-1.1604e-05" x2="284.971" y2="-17.9515" gradientUnits="userSpaceOnUse">
<stop stop-color="#FFA748"/>
<stop offset="1" stop-color="#F54A79"/>
</linearGradient>
<linearGradient id="paint105_linear_36_83" x1="-6.87338e-05" y1="-1.1604e-05" x2="284.971" y2="-17.9515" gradientUnits="userSpaceOnUse">
<stop stop-color="#FFA748"/>
<stop offset="1" stop-color="#F54A79"/>
</linearGradient>
<linearGradient id="paint106_linear_36_83" x1="-6.87338e-05" y1="-1.1604e-05" x2="284.971" y2="-17.9515" gradientUnits="userSpaceOnUse">
<stop stop-color="#FFA748"/>
<stop offset="1" stop-color="#F54A79"/>
</linearGradient>
<linearGradient id="paint107_linear_36_83" x1="-6.87338e-05" y1="-1.1604e-05" x2="284.971" y2="-17.9515" gradientUnits="userSpaceOnUse">
<stop stop-color="#FFA748"/>
<stop offset="1" stop-color="#F54A79"/>
</linearGradient>
<linearGradient id="paint108_linear_36_83" x1="-6.87338e-05" y1="-1.1604e-05" x2="284.971" y2="-17.9515" gradientUnits="userSpaceOnUse">
<stop stop-color="#FFA748"/>
<stop offset="1" stop-color="#F54A79"/>
</linearGradient>
<linearGradient id="paint109_linear_36_83" x1="-6.87338e-05" y1="-1.1604e-05" x2="284.971" y2="-17.9515" gradientUnits="userSpaceOnUse">
<stop stop-color="#FFA748"/>
<stop offset="1" stop-color="#F54A79"/>
</linearGradient>
<linearGradient id="paint110_linear_36_83" x1="-6.87338e-05" y1="-1.1604e-05" x2="284.971" y2="-17.9515" gradientUnits="userSpaceOnUse">
<stop stop-color="#FFA748"/>
<stop offset="1" stop-color="#F54A79"/>
</linearGradient>
<linearGradient id="paint111_linear_36_83" x1="-6.87338e-05" y1="-1.1604e-05" x2="284.971" y2="-17.9515" gradientUnits="userSpaceOnUse">
<stop stop-color="#FFA748"/>
<stop offset="1" stop-color="#F54A79"/>
</linearGradient>
<linearGradient id="paint112_linear_36_83" x1="-6.87338e-05" y1="-1.1604e-05" x2="284.971" y2="-17.9515" gradientUnits="userSpaceOnUse">
<stop stop-color="#FFA748"/>
<stop offset="1" stop-color="#F54A79"/>
</linearGradient>
<linearGradient id="paint113_linear_36_83" x1="-6.87338e-05" y1="-1.1604e-05" x2="284.971" y2="-17.9515" gradientUnits="userSpaceOnUse">
<stop stop-color="#FFA748"/>
<stop offset="1" stop-color="#F54A79"/>
</linearGradient>
<linearGradient id="paint114_linear_36_83" x1="-6.87338e-05" y1="-1.1604e-05" x2="284.971" y2="-17.9515" gradientUnits="userSpaceOnUse">
<stop stop-color="#FFA748"/>
<stop offset="1" stop-color="#F54A79"/>
</linearGradient>
<linearGradient id="paint115_linear_36_83" x1="-6.87338e-05" y1="-1.1604e-05" x2="284.971" y2="-17.9515" gradientUnits="userSpaceOnUse">
<stop stop-color="#FFA748"/>
<stop offset="1" stop-color="#F54A79"/>
</linearGradient>
<linearGradient id="paint116_linear_36_83" x1="-6.87338e-05" y1="-1.1604e-05" x2="284.971" y2="-17.9515" gradientUnits="userSpaceOnUse">
<stop stop-color="#FFA748"/>
<stop offset="1" stop-color="#F54A79"/>
</linearGradient>
<linearGradient id="paint117_linear_36_83" x1="-6.87338e-05" y1="-1.1604e-05" x2="284.971" y2="-17.9515" gradientUnits="userSpaceOnUse">
<stop stop-color="#FFA748"/>
<stop offset="1" stop-color="#F54A79"/>
</linearGradient>
<linearGradient id="paint118_linear_36_83" x1="-6.87338e-05" y1="-1.1604e-05" x2="284.971" y2="-17.9515" gradientUnits="userSpaceOnUse">
<stop stop-color="#FFA748"/>
<stop offset="1" stop-color="#F54A79"/>
</linearGradient>
<linearGradient id="paint119_linear_36_83" x1="-6.87338e-05" y1="-1.1604e-05" x2="284.971" y2="-17.9515" gradientUnits="userSpaceOnUse">
<stop stop-color="#FFA748"/>
<stop offset="1" stop-color="#F54A79"/>
</linearGradient>
<linearGradient id="paint120_linear_36_83" x1="-6.87338e-05" y1="-1.1604e-05" x2="284.971" y2="-17.9515" gradientUnits="userSpaceOnUse">
<stop stop-color="#FFA748"/>
<stop offset="1" stop-color="#F54A79"/>
</linearGradient>
<linearGradient id="paint121_linear_36_83" x1="-6.87338e-05" y1="-1.1604e-05" x2="284.971" y2="-17.9515" gradientUnits="userSpaceOnUse">
<stop stop-color="#FFA748"/>
<stop offset="1" stop-color="#F54A79"/>
</linearGradient>
<linearGradient id="paint122_linear_36_83" x1="-6.87338e-05" y1="-1.1604e-05" x2="284.971" y2="-17.9515" gradientUnits="userSpaceOnUse">
<stop stop-color="#FFA748"/>
<stop offset="1" stop-color="#F54A79"/>
</linearGradient>
<linearGradient id="paint123_linear_36_83" x1="-6.87338e-05" y1="-1.1604e-05" x2="284.971" y2="-17.9515" gradientUnits="userSpaceOnUse">
<stop stop-color="#FFA748"/>
<stop offset="1" stop-color="#F54A79"/>
</linearGradient>
<linearGradient id="paint124_linear_36_83" x1="-6.87338e-05" y1="-1.1604e-05" x2="284.971" y2="-17.9515" gradientUnits="userSpaceOnUse">
<stop stop-color="#FFA748"/>
<stop offset="1" stop-color="#F54A79"/>
</linearGradient>
<linearGradient id="paint125_linear_36_83" x1="-6.87338e-05" y1="-1.1604e-05" x2="284.971" y2="-17.9515" gradientUnits="userSpaceOnUse">
<stop stop-color="#FFA748"/>
<stop offset="1" stop-color="#F54A79"/>
</linearGradient>
<linearGradient id="paint126_linear_36_83" x1="-6.87338e-05" y1="-1.1604e-05" x2="284.971" y2="-17.9515" gradientUnits="userSpaceOnUse">
<stop stop-color="#FFA748"/>
<stop offset="1" stop-color="#F54A79"/>
</linearGradient>
<linearGradient id="paint127_linear_36_83" x1="-6.87338e-05" y1="-1.1604e-05" x2="284.971" y2="-17.9515" gradientUnits="userSpaceOnUse">
<stop stop-color="#FFA748"/>
<stop offset="1" stop-color="#F54A79"/>
</linearGradient>
<linearGradient id="paint128_linear_36_83" x1="-6.87338e-05" y1="-1.1604e-05" x2="284.971" y2="-17.9515" gradientUnits="userSpaceOnUse">
<stop stop-color="#FFA748"/>
<stop offset="1" stop-color="#F54A79"/>
</linearGradient>
<linearGradient id="paint129_linear_36_83" x1="-6.87338e-05" y1="-1.1604e-05" x2="284.971" y2="-17.9515" gradientUnits="userSpaceOnUse">
<stop stop-color="#FFA748"/>
<stop offset="1" stop-color="#F54A79"/>
</linearGradient>
<linearGradient id="paint130_linear_36_83" x1="-6.87338e-05" y1="-1.1604e-05" x2="284.971" y2="-17.9515" gradientUnits="userSpaceOnUse">
<stop stop-color="#FFA748"/>
<stop offset="1" stop-color="#F54A79"/>
</linearGradient>
<linearGradient id="paint131_linear_36_83" x1="-6.87338e-05" y1="-1.1604e-05" x2="284.971" y2="-17.9515" gradientUnits="userSpaceOnUse">
<stop stop-color="#FFA748"/>
<stop offset="1" stop-color="#F54A79"/>
</linearGradient>
</defs>
</svg>
