<svg width="44" height="44" viewBox="0 0 44 44" fill="none" xmlns="http://www.w3.org/2000/svg">
<g filter="url(#filter0_d_9_7)">
<path fill-rule="evenodd" clip-rule="evenodd" d="M22 38C31.9411 38 40 29.9411 40 20C40 10.0589 31.9411 2 22 2C12.0589 2 4 10.0589 4 20C4 29.9411 12.0589 38 22 38ZM26.4954 10.5131C26.4564 10.3061 26.3158 10.1303 26.1205 10.0483C25.9252 9.96629 25.7026 9.98973 25.5268 10.1108L22 12.544L18.4732 10.1108C18.2974 9.98973 18.0748 9.96629 17.8795 10.0483C17.6842 10.1303 17.5436 10.3061 17.5046 10.5131L16.7273 14.7273L12.5131 15.5046C12.3061 15.5436 12.1303 15.6842 12.0483 15.8795C11.9663 16.0748 11.9897 16.2974 12.1108 16.4732L14.544 20L12.1108 23.5268C11.9897 23.7026 11.9663 23.9252 12.0483 24.1205C12.1303 24.3158 12.3061 24.4564 12.5131 24.4954L16.7273 25.2727L17.5046 29.4869C17.5436 29.6939 17.6842 29.8697 17.8795 29.9517C18.0748 30.0337 18.2974 30.0103 18.4732 29.8892L22 27.456L25.5268 29.8892C25.7026 30.0103 25.9252 30.0337 26.1205 29.9517C26.3158 29.8697 26.4564 29.6939 26.4954 29.4869L27.2727 25.2727L31.4869 24.4954C31.6939 24.4564 31.8697 24.3158 31.9517 24.1205C32.0337 23.9252 32.0103 23.7026 31.8892 23.5268L29.456 20L31.8892 16.4693C32.0103 16.2935 32.0337 16.0709 31.9517 15.8756C31.8697 15.6803 31.6939 15.5397 31.4869 15.5007L27.2727 14.7273L26.4954 10.5131ZM19.3487 17.3487C18.6456 18.0519 18.2505 19.0056 18.2505 20C18.2505 20.9944 18.6456 21.9481 19.3487 22.6513C20.0519 23.3544 21.0056 23.7495 22 23.7495C22.9944 23.7495 23.9481 23.3544 24.6513 22.6513C25.3544 21.9481 25.7495 20.9944 25.7495 20C25.7495 19.0056 25.3544 18.0519 24.6513 17.3487C23.9481 16.6456 22.9944 16.2505 22 16.2505C21.0056 16.2505 20.0519 16.6456 19.3487 17.3487ZM25.535 16.465C26.4726 17.4025 26.9993 18.6741 26.9993 20C26.9993 21.3259 26.4726 22.5975 25.535 23.535C24.5975 24.4726 23.3259 24.9993 22 24.9993C20.6741 24.9993 19.4025 24.4726 18.465 23.535C17.5274 22.5975 17.0007 21.3259 17.0007 20C17.0007 18.6741 17.5274 17.4025 18.465 16.465C19.4025 15.5274 20.6741 15.0007 22 15.0007C23.3259 15.0007 24.5975 15.5274 25.535 16.465Z" fill="url(#paint0_linear_9_7)"/>
</g>
<defs>
<filter id="filter0_d_9_7" x="0" y="0" width="44" height="44" filterUnits="userSpaceOnUse" color-interpolation-filters="sRGB">
<feFlood flood-opacity="0" result="BackgroundImageFix"/>
<feColorMatrix in="SourceAlpha" type="matrix" values="0 0 0 0 0 0 0 0 0 0 0 0 0 0 0 0 0 0 127 0" result="hardAlpha"/>
<feOffset dy="2"/>
<feGaussianBlur stdDeviation="2"/>
<feComposite in2="hardAlpha" operator="out"/>
<feColorMatrix type="matrix" values="0 0 0 0 0 0 0 0 0 0 0 0 0 0 0 0 0 0 0.25 0"/>
<feBlend mode="normal" in2="BackgroundImageFix" result="effect1_dropShadow_9_7"/>
<feBlend mode="normal" in="SourceGraphic" in2="effect1_dropShadow_9_7" result="shape"/>
</filter>
<linearGradient id="paint0_linear_9_7" x1="4" y1="2" x2="40" y2="38" gradientUnits="userSpaceOnUse">
<stop stop-color="#22C7F5"/>
<stop offset="1" stop-color="#2EC291"/>
</linearGradient>
</defs>
</svg>
